# MagicaVoxel @ Ephtracy

# group
g 소화전-1

# material
mtllib 소화전-1.mtl
usemtl palette

# normals
vn -1 0 0
vn 1 0 0
vn 0 0 1
vn 0 0 -1
vn 0 -1 0
vn 0 1 0

# texcoords
vt 0.947266 0.5
vt 0.951172 0.5
vt 0.955078 0.5
vt 0.974609 0.5
vt 0.986328 0.5
vt 0.994141 0.5

# verts
v -63 0 -20
v -63 0 -63
v -63 10 -20
v -63 10 -63
v -63 126 -20
v -63 126 -63
v -57 102 -19
v -57 102 -20
v -57 103 -8
v -57 103 -19
v -57 106 -8
v -57 106 -19
v -57 107 -19
v -57 107 -20
v -43 33 -18
v -43 33 -21
v -43 34 -18
v -43 34 -21
v -11 33 -19
v -11 33 -21
v -11 34 -19
v -11 34 -21
v -6 0 -20
v -6 0 -21
v -6 0 -22
v -6 0 -63
v -6 10 -22
v -6 10 -63
v -6 81 -20
v -6 81 -21
v -6 81 -22
v -6 81 -63
v -5 102 -19
v -5 102 -20
v -5 103 -8
v -5 103 -19
v -5 106 -8
v -5 106 -19
v -5 107 -19
v -5 107 -20
v 7 0 -22
v 7 0 -23
v 7 81 -22
v 7 81 -23
v 9 33 -18
v 9 33 -21
v 9 34 -18
v 9 34 -21
v 42 33 -19
v 42 33 -21
v 42 34 -19
v 42 34 -21
v 47 0 -20
v 47 0 -21
v 47 81 -20
v 47 81 -21
v 48 0 -22
v 48 0 -63
v 48 10 -22
v 48 10 -63
v 48 82 -22
v 48 82 -63
v -56 102 -19
v -56 102 -20
v -56 103 -8
v -56 103 -19
v -56 106 -8
v -56 106 -19
v -56 107 -19
v -56 107 -20
v -46 0 -20
v -46 0 -21
v -46 0 -22
v -46 0 -63
v -46 10 -22
v -46 10 -63
v -46 81 -20
v -46 81 -21
v -46 81 -22
v -46 81 -63
v -42 33 -19
v -42 33 -21
v -42 34 -19
v -42 34 -21
v -10 33 -18
v -10 33 -21
v -10 34 -18
v -10 34 -21
v -4 102 -19
v -4 102 -20
v -4 103 -8
v -4 103 -19
v -4 106 -8
v -4 106 -19
v -4 107 -19
v -4 107 -20
v 5 0 -22
v 5 0 -63
v 5 10 -22
v 5 10 -63
v 5 82 -22
v 5 82 -63
v 6 0 -20
v 6 0 -21
v 6 81 -20
v 6 81 -21
v 10 33 -19
v 10 33 -21
v 10 34 -19
v 10 34 -21
v 43 33 -18
v 43 33 -21
v 43 34 -18
v 43 34 -21
v 47 0 -22
v 47 0 -23
v 47 81 -22
v 47 81 -23
v 63 0 -20
v 63 0 -63
v 63 10 -20
v 63 10 -63
v 63 126 -20
v 63 126 -63
v -57 103 -8
v -57 106 -8
v -56 103 -8
v -56 106 -8
v -5 103 -8
v -5 106 -8
v -4 103 -8
v -4 106 -8
v -43 33 -18
v -43 34 -18
v -10 33 -18
v -10 34 -18
v 9 33 -18
v 9 34 -18
v 43 33 -18
v 43 34 -18
v -57 102 -19
v -57 103 -19
v -57 106 -19
v -57 107 -19
v -56 102 -19
v -56 103 -19
v -56 106 -19
v -56 107 -19
v -5 102 -19
v -5 103 -19
v -5 106 -19
v -5 107 -19
v -4 102 -19
v -4 103 -19
v -4 106 -19
v -4 107 -19
v -63 0 -20
v -63 10 -20
v -63 126 -20
v -57 102 -20
v -57 107 -20
v -56 102 -20
v -56 107 -20
v -47 0 -20
v -47 10 -20
v -47 82 -20
v -46 0 -20
v -46 81 -20
v -6 0 -20
v -6 81 -20
v -5 0 -20
v -5 10 -20
v -5 82 -20
v -5 102 -20
v -5 107 -20
v -4 102 -20
v -4 107 -20
v 5 0 -20
v 5 10 -20
v 5 82 -20
v 6 0 -20
v 6 81 -20
v 47 0 -20
v 47 81 -20
v 48 0 -20
v 48 10 -20
v 48 82 -20
v 63 0 -20
v 63 10 -20
v 63 126 -20
v -46 0 -21
v -46 81 -21
v -43 33 -21
v -43 34 -21
v -42 33 -21
v -42 34 -21
v -11 33 -21
v -11 34 -21
v -10 33 -21
v -10 34 -21
v -6 0 -21
v -6 81 -21
v 6 0 -21
v 6 81 -21
v 9 33 -21
v 9 34 -21
v 10 33 -21
v 10 34 -21
v 42 33 -21
v 42 34 -21
v 43 33 -21
v 43 34 -21
v 47 0 -21
v 47 81 -21
v -42 33 -19
v -42 34 -19
v -11 33 -19
v -11 34 -19
v 10 33 -19
v 10 34 -19
v 42 33 -19
v 42 34 -19
v -46 0 -22
v -46 10 -22
v -46 81 -22
v -6 0 -22
v -6 10 -22
v -6 81 -22
v 5 0 -22
v 5 10 -22
v 5 82 -22
v 6 0 -22
v 6 81 -22
v 7 0 -22
v 7 81 -22
v 47 0 -22
v 47 81 -22
v 48 0 -22
v 48 10 -22
v 48 82 -22
v 7 0 -23
v 7 81 -23
v 47 0 -23
v 47 81 -23
v -63 0 -63
v -63 10 -63
v -63 126 -63
v -46 0 -63
v -46 10 -63
v -46 81 -63
v -6 0 -63
v -6 10 -63
v -6 81 -63
v 5 0 -63
v 5 10 -63
v 5 82 -63
v 48 0 -63
v 48 10 -63
v 48 82 -63
v 63 0 -63
v 63 10 -63
v 63 126 -63
v -63 0 -20
v -47 0 -20
v -46 0 -20
v -6 0 -20
v -5 0 -20
v 5 0 -20
v 6 0 -20
v 47 0 -20
v 48 0 -20
v 63 0 -20
v -46 0 -21
v -6 0 -21
v 6 0 -21
v 47 0 -21
v -47 0 -22
v -46 0 -22
v -6 0 -22
v -5 0 -22
v 5 0 -22
v 6 0 -22
v 7 0 -22
v 47 0 -22
v 48 0 -22
v 7 0 -23
v 47 0 -23
v -63 0 -63
v -46 0 -63
v -6 0 -63
v 5 0 -63
v 48 0 -63
v 63 0 -63
v -43 33 -18
v -10 33 -18
v 9 33 -18
v 43 33 -18
v -42 33 -19
v -11 33 -19
v 10 33 -19
v 42 33 -19
v -43 33 -21
v -42 33 -21
v -11 33 -21
v -10 33 -21
v 9 33 -21
v 10 33 -21
v 42 33 -21
v 43 33 -21
v -46 81 -20
v -6 81 -20
v 6 81 -20
v 47 81 -20
v -46 81 -21
v -6 81 -21
v 6 81 -21
v 47 81 -21
v -46 81 -22
v -6 81 -22
v -46 81 -63
v -6 81 -63
v 5 82 -22
v 48 82 -22
v 5 82 -63
v 48 82 -63
v -57 102 -19
v -56 102 -19
v -5 102 -19
v -4 102 -19
v -57 102 -20
v -56 102 -20
v -5 102 -20
v -4 102 -20
v -57 103 -8
v -56 103 -8
v -5 103 -8
v -4 103 -8
v -57 103 -19
v -56 103 -19
v -5 103 -19
v -4 103 -19
v -43 34 -18
v -10 34 -18
v 9 34 -18
v 43 34 -18
v -42 34 -19
v -11 34 -19
v 10 34 -19
v 42 34 -19
v -43 34 -21
v -42 34 -21
v -11 34 -21
v -10 34 -21
v 9 34 -21
v 10 34 -21
v 42 34 -21
v 43 34 -21
v 7 81 -22
v 47 81 -22
v 7 81 -23
v 47 81 -23
v -57 106 -8
v -56 106 -8
v -5 106 -8
v -4 106 -8
v -57 106 -19
v -56 106 -19
v -5 106 -19
v -4 106 -19
v -57 107 -19
v -56 107 -19
v -5 107 -19
v -4 107 -19
v -57 107 -20
v -56 107 -20
v -5 107 -20
v -4 107 -20
v -63 126 -20
v 63 126 -20
v -63 126 -63
v 63 126 -63

# faces
f 3/6/1 2/6/1 1/6/1
f 4/6/1 2/6/1 3/6/1
f 5/4/1 4/4/1 3/4/1
f 6/4/1 4/4/1 5/4/1
f 10/4/1 8/4/1 7/4/1
f 11/1/1 10/1/1 9/1/1
f 12/4/1 8/4/1 10/4/1
f 12/1/1 10/1/1 11/1/1
f 13/4/1 8/4/1 12/4/1
f 14/4/1 8/4/1 13/4/1
f 17/2/1 16/2/1 15/2/1
f 18/2/1 16/2/1 17/2/1
f 21/2/1 20/2/1 19/2/1
f 22/2/1 20/2/1 21/2/1
f 27/6/1 26/6/1 25/6/1
f 28/6/1 26/6/1 27/6/1
f 29/2/1 24/2/1 23/2/1
f 30/2/1 24/2/1 29/2/1
f 31/4/1 28/4/1 27/4/1
f 32/4/1 28/4/1 31/4/1
f 36/4/1 34/4/1 33/4/1
f 37/5/1 36/5/1 35/5/1
f 38/4/1 34/4/1 36/4/1
f 38/5/1 36/5/1 37/5/1
f 39/4/1 34/4/1 38/4/1
f 40/4/1 34/4/1 39/4/1
f 43/3/1 42/3/1 41/3/1
f 44/3/1 42/3/1 43/3/1
f 47/2/1 46/2/1 45/2/1
f 48/2/1 46/2/1 47/2/1
f 51/2/1 50/2/1 49/2/1
f 52/2/1 50/2/1 51/2/1
f 55/2/1 54/2/1 53/2/1
f 56/2/1 54/2/1 55/2/1
f 59/6/1 58/6/1 57/6/1
f 60/6/1 58/6/1 59/6/1
f 61/4/1 60/4/1 59/4/1
f 62/4/1 60/4/1 61/4/1
f 63/4/2 64/4/2 66/4/2
f 65/1/2 66/1/2 67/1/2
f 66/4/2 64/4/2 68/4/2
f 67/1/2 66/1/2 68/1/2
f 68/4/2 64/4/2 69/4/2
f 69/4/2 64/4/2 70/4/2
f 73/6/2 74/6/2 75/6/2
f 75/6/2 74/6/2 76/6/2
f 71/2/2 72/2/2 77/2/2
f 77/2/2 72/2/2 78/2/2
f 75/4/2 76/4/2 79/4/2
f 79/4/2 76/4/2 80/4/2
f 81/2/2 82/2/2 83/2/2
f 83/2/2 82/2/2 84/2/2
f 85/2/2 86/2/2 87/2/2
f 87/2/2 86/2/2 88/2/2
f 89/4/2 90/4/2 92/4/2
f 91/5/2 92/5/2 93/5/2
f 92/4/2 90/4/2 94/4/2
f 93/5/2 92/5/2 94/5/2
f 94/4/2 90/4/2 95/4/2
f 95/4/2 90/4/2 96/4/2
f 97/6/2 98/6/2 99/6/2
f 99/6/2 98/6/2 100/6/2
f 99/4/2 100/4/2 101/4/2
f 101/4/2 100/4/2 102/4/2
f 103/2/2 104/2/2 105/2/2
f 105/2/2 104/2/2 106/2/2
f 107/2/2 108/2/2 109/2/2
f 109/2/2 108/2/2 110/2/2
f 111/2/2 112/2/2 113/2/2
f 113/2/2 112/2/2 114/2/2
f 115/3/2 116/3/2 117/3/2
f 117/3/2 116/3/2 118/3/2
f 119/6/2 120/6/2 121/6/2
f 121/6/2 120/6/2 122/6/2
f 121/4/2 122/4/2 123/4/2
f 123/4/2 122/4/2 124/4/2
f 127/1/3 126/1/3 125/1/3
f 128/1/3 126/1/3 127/1/3
f 131/5/3 130/5/3 129/5/3
f 132/5/3 130/5/3 131/5/3
f 135/2/3 134/2/3 133/2/3
f 136/2/3 134/2/3 135/2/3
f 139/2/3 138/2/3 137/2/3
f 140/2/3 138/2/3 139/2/3
f 145/4/3 142/4/3 141/4/3
f 146/4/3 142/4/3 145/4/3
f 147/4/3 144/4/3 143/4/3
f 148/4/3 144/4/3 147/4/3
f 153/4/3 150/4/3 149/4/3
f 154/4/3 150/4/3 153/4/3
f 155/4/3 152/4/3 151/4/3
f 156/4/3 152/4/3 155/4/3
f 160/4/3 159/4/3 158/4/3
f 161/4/3 159/4/3 160/4/3
f 162/4/3 160/4/3 158/4/3
f 163/4/3 159/4/3 161/4/3
f 164/6/3 158/6/3 157/6/3
f 165/4/3 163/4/3 162/4/3
f 165/6/3 158/6/3 164/6/3
f 165/4/3 162/4/3 158/4/3
f 166/4/3 163/4/3 165/4/3
f 167/2/3 165/2/3 164/2/3
f 167/2/3 166/2/3 165/2/3
f 168/2/3 166/2/3 167/2/3
f 170/2/3 166/2/3 168/2/3
f 171/2/3 170/2/3 169/2/3
f 172/2/3 170/2/3 171/2/3
f 173/4/3 163/4/3 166/4/3
f 173/2/3 170/2/3 172/2/3
f 173/2/3 166/2/3 170/2/3
f 174/4/3 163/4/3 173/4/3
f 175/4/3 159/4/3 163/4/3
f 175/4/3 163/4/3 174/4/3
f 176/4/3 174/4/3 173/4/3
f 176/4/3 173/4/3 172/4/3
f 177/4/3 159/4/3 175/4/3
f 178/6/3 172/6/3 171/6/3
f 179/4/3 176/4/3 172/4/3
f 179/6/3 172/6/3 178/6/3
f 179/4/3 177/4/3 176/4/3
f 180/4/3 177/4/3 179/4/3
f 181/2/3 179/2/3 178/2/3
f 181/2/3 180/2/3 179/2/3
f 182/2/3 180/2/3 181/2/3
f 184/2/3 180/2/3 182/2/3
f 185/2/3 184/2/3 183/2/3
f 186/2/3 184/2/3 185/2/3
f 187/4/3 177/4/3 180/4/3
f 187/2/3 184/2/3 186/2/3
f 187/2/3 180/2/3 184/2/3
f 188/6/3 186/6/3 185/6/3
f 189/4/3 187/4/3 186/4/3
f 189/6/3 186/6/3 188/6/3
f 190/4/3 159/4/3 177/4/3
f 190/4/3 187/4/3 189/4/3
f 190/4/3 177/4/3 187/4/3
f 193/3/3 192/3/3 191/3/3
f 194/3/3 192/3/3 193/3/3
f 195/3/3 193/3/3 191/3/3
f 196/3/3 192/3/3 194/3/3
f 197/3/3 195/3/3 191/3/3
f 197/3/3 196/3/3 195/3/3
f 198/3/3 192/3/3 196/3/3
f 198/3/3 196/3/3 197/3/3
f 199/3/3 197/3/3 191/3/3
f 200/3/3 192/3/3 198/3/3
f 201/3/3 199/3/3 191/3/3
f 201/3/3 200/3/3 199/3/3
f 202/3/3 192/3/3 200/3/3
f 202/3/3 200/3/3 201/3/3
f 205/3/3 204/3/3 203/3/3
f 206/3/3 204/3/3 205/3/3
f 207/3/3 205/3/3 203/3/3
f 208/3/3 204/3/3 206/3/3
f 209/3/3 207/3/3 203/3/3
f 209/3/3 208/3/3 207/3/3
f 210/3/3 204/3/3 208/3/3
f 210/3/3 208/3/3 209/3/3
f 211/3/3 209/3/3 203/3/3
f 212/3/3 204/3/3 210/3/3
f 213/3/3 211/3/3 203/3/3
f 213/3/3 212/3/3 211/3/3
f 214/3/3 204/3/3 212/3/3
f 214/3/3 212/3/3 213/3/3
f 215/2/4 216/2/4 217/2/4
f 217/2/4 216/2/4 218/2/4
f 219/2/4 220/2/4 221/2/4
f 221/2/4 220/2/4 222/2/4
f 223/3/4 224/3/4 226/3/4
f 224/3/4 225/3/4 226/3/4
f 226/3/4 225/3/4 227/3/4
f 227/3/4 225/3/4 228/3/4
f 229/2/4 230/2/4 232/2/4
f 230/2/4 231/2/4 232/2/4
f 232/2/4 231/2/4 233/2/4
f 232/3/4 233/3/4 234/3/4
f 233/2/4 231/2/4 235/2/4
f 234/3/4 233/3/4 235/3/4
f 235/2/4 231/2/4 237/2/4
f 236/2/4 237/2/4 238/2/4
f 238/2/4 237/2/4 239/2/4
f 237/2/4 231/2/4 240/2/4
f 239/2/4 237/2/4 240/2/4
f 241/3/4 242/3/4 243/3/4
f 243/3/4 242/3/4 244/3/4
f 245/6/4 246/6/4 248/6/4
f 246/4/4 247/4/4 249/4/4
f 248/6/4 246/6/4 249/6/4
f 249/4/4 247/4/4 250/4/4
f 250/4/4 247/4/4 253/4/4
f 251/6/4 252/6/4 254/6/4
f 252/4/4 253/4/4 255/4/4
f 254/6/4 252/6/4 255/6/4
f 253/4/4 247/4/4 256/4/4
f 255/4/4 253/4/4 256/4/4
f 256/4/4 247/4/4 259/4/4
f 257/6/4 258/6/4 260/6/4
f 258/4/4 259/4/4 261/4/4
f 260/6/4 258/6/4 261/6/4
f 259/4/4 247/4/4 262/4/4
f 261/4/4 259/4/4 262/4/4
f 273/2/5 265/2/5 264/2/5
f 274/2/5 267/2/5 266/2/5
f 275/2/5 269/2/5 268/2/5
f 276/2/5 271/2/5 270/2/5
f 277/6/5 264/6/5 263/6/5
f 277/2/5 273/2/5 264/2/5
f 278/3/5 274/3/5 273/3/5
f 278/2/5 273/2/5 277/2/5
f 279/2/5 267/2/5 274/2/5
f 279/3/5 274/3/5 278/3/5
f 280/6/5 268/6/5 267/6/5
f 280/2/5 267/2/5 279/2/5
f 281/2/5 275/2/5 268/2/5
f 281/6/5 268/6/5 280/6/5
f 282/3/5 276/3/5 275/3/5
f 282/2/5 275/2/5 281/2/5
f 283/3/5 276/3/5 282/3/5
f 284/2/5 271/2/5 276/2/5
f 284/3/5 276/3/5 283/3/5
f 285/6/5 272/6/5 271/6/5
f 285/2/5 271/2/5 284/2/5
f 286/3/5 284/3/5 283/3/5
f 287/3/5 284/3/5 286/3/5
f 288/6/5 278/6/5 277/6/5
f 288/6/5 277/6/5 263/6/5
f 289/6/5 278/6/5 288/6/5
f 290/6/5 281/6/5 280/6/5
f 290/6/5 280/6/5 279/6/5
f 291/6/5 281/6/5 290/6/5
f 292/6/5 272/6/5 285/6/5
f 293/6/5 272/6/5 292/6/5
f 298/2/5 295/2/5 294/2/5
f 299/2/5 295/2/5 298/2/5
f 300/2/5 297/2/5 296/2/5
f 301/2/5 297/2/5 300/2/5
f 302/2/5 298/2/5 294/2/5
f 303/2/5 298/2/5 302/2/5
f 304/2/5 295/2/5 299/2/5
f 305/2/5 295/2/5 304/2/5
f 306/2/5 300/2/5 296/2/5
f 307/2/5 300/2/5 306/2/5
f 308/2/5 297/2/5 301/2/5
f 309/2/5 297/2/5 308/2/5
f 314/2/5 311/2/5 310/2/5
f 315/2/5 311/2/5 314/2/5
f 316/2/5 313/2/5 312/2/5
f 317/2/5 313/2/5 316/2/5
f 320/4/5 319/4/5 318/4/5
f 321/4/5 319/4/5 320/4/5
f 324/4/5 323/4/5 322/4/5
f 325/4/5 323/4/5 324/4/5
f 330/4/5 327/4/5 326/4/5
f 331/4/5 327/4/5 330/4/5
f 332/4/5 329/4/5 328/4/5
f 333/4/5 329/4/5 332/4/5
f 338/1/5 335/1/5 334/1/5
f 339/1/5 335/1/5 338/1/5
f 340/5/5 337/5/5 336/5/5
f 341/5/5 337/5/5 340/5/5
f 342/2/6 343/2/6 346/2/6
f 346/2/6 343/2/6 347/2/6
f 344/2/6 345/2/6 348/2/6
f 348/2/6 345/2/6 349/2/6
f 342/2/6 346/2/6 350/2/6
f 350/2/6 346/2/6 351/2/6
f 347/2/6 343/2/6 352/2/6
f 352/2/6 343/2/6 353/2/6
f 344/2/6 348/2/6 354/2/6
f 354/2/6 348/2/6 355/2/6
f 349/2/6 345/2/6 356/2/6
f 356/2/6 345/2/6 357/2/6
f 358/3/6 359/3/6 360/3/6
f 360/3/6 359/3/6 361/3/6
f 362/1/6 363/1/6 366/1/6
f 366/1/6 363/1/6 367/1/6
f 364/5/6 365/5/6 368/5/6
f 368/5/6 365/5/6 369/5/6
f 370/4/6 371/4/6 374/4/6
f 374/4/6 371/4/6 375/4/6
f 372/4/6 373/4/6 376/4/6
f 376/4/6 373/4/6 377/4/6
f 378/4/6 379/4/6 380/4/6
f 380/4/6 379/4/6 381/4/6
