# MagicaVoxel @ Ephtracy

# group
g 소화전-0

# material
mtllib 소화전-0.mtl
usemtl palette

# normals
vn -1 0 0
vn 1 0 0
vn 0 0 1
vn 0 0 -1
vn 0 -1 0
vn 0 1 0

# texcoords
vt 0.939453 0.5
vt 0.974609 0.5
vt 0.978516 0.5
vt 0.986328 0.5
vt 0.994141 0.5

# verts
v -63 0 -51
v -63 0 -63
v -63 10 -51
v -63 10 -63
v -63 126 -51
v -63 126 -63
v 17 57 -50
v 17 57 -51
v 17 66 -50
v 17 66 -51
v 18 24 -57
v 18 24 -60
v 18 32 -57
v 18 32 -60
v 18 36 -57
v 18 36 -60
v 18 44 -57
v 18 44 -60
v 21 58 -49
v 21 58 -50
v 21 63 -49
v 21 63 -50
v 26 100 -50
v 26 100 -51
v 26 107 -50
v 26 107 -51
v 27 101 -49
v 27 101 -50
v 27 106 -49
v 27 106 -50
v 29 61 -49
v 29 61 -50
v 29 63 -49
v 29 63 -50
v 35 32 -57
v 35 32 -60
v 35 36 -57
v 35 36 -60
v 40 24 -54
v 40 24 -57
v 40 24 -60
v 40 24 -62
v 40 26 -57
v 40 26 -60
v 40 30 -54
v 40 30 -62
v 43 24 -51
v 43 24 -54
v 43 29 -50
v 43 29 -51
v 43 30 -54
v 43 30 -62
v 43 32 -50
v 43 32 -51
v 43 50 -50
v 43 50 -51
v 43 53 -50
v 43 53 -51
v 43 57 -51
v 43 57 -62
v 17 24 -51
v 17 24 -62
v 17 57 -51
v 17 57 -62
v 21 26 -57
v 21 26 -60
v 21 30 -57
v 21 30 -60
v 21 38 -57
v 21 38 -60
v 21 42 -57
v 21 42 -60
v 26 58 -49
v 26 58 -50
v 26 63 -49
v 26 63 -50
v 29 101 -49
v 29 101 -50
v 29 106 -49
v 29 106 -50
v 30 100 -50
v 30 100 -51
v 30 107 -50
v 30 107 -51
v 34 61 -49
v 34 61 -50
v 34 63 -49
v 34 63 -50
v 38 30 -57
v 38 30 -60
v 38 38 -57
v 38 38 -60
v 38 42 -57
v 38 42 -60
v 38 44 -57
v 38 44 -60
v 43 57 -50
v 43 57 -51
v 43 66 -50
v 43 66 -51
v 44 29 -50
v 44 29 -51
v 44 32 -50
v 44 32 -51
v 44 50 -50
v 44 50 -51
v 44 53 -50
v 44 53 -51
v 63 0 -51
v 63 0 -63
v 63 10 -51
v 63 10 -63
v 63 126 -51
v 63 126 -63
v 21 58 -49
v 21 63 -49
v 23 61 -49
v 23 62 -49
v 24 61 -49
v 24 62 -49
v 26 58 -49
v 26 63 -49
v 27 101 -49
v 27 106 -49
v 29 61 -49
v 29 63 -49
v 29 101 -49
v 29 106 -49
v 34 61 -49
v 34 63 -49
v 17 57 -50
v 17 66 -50
v 21 58 -50
v 21 63 -50
v 26 58 -50
v 26 63 -50
v 26 100 -50
v 26 107 -50
v 27 101 -50
v 27 106 -50
v 29 61 -50
v 29 63 -50
v 29 101 -50
v 29 106 -50
v 30 100 -50
v 30 107 -50
v 34 61 -50
v 34 63 -50
v 43 29 -50
v 43 32 -50
v 43 50 -50
v 43 53 -50
v 43 57 -50
v 43 66 -50
v 44 29 -50
v 44 32 -50
v 44 50 -50
v 44 53 -50
v -63 0 -51
v -63 10 -51
v -63 126 -51
v 17 24 -51
v 17 57 -51
v 17 66 -51
v 26 100 -51
v 26 107 -51
v 30 100 -51
v 30 107 -51
v 43 24 -51
v 43 29 -51
v 43 32 -51
v 43 50 -51
v 43 53 -51
v 43 57 -51
v 43 66 -51
v 44 29 -51
v 44 32 -51
v 44 50 -51
v 44 53 -51
v 63 0 -51
v 63 10 -51
v 63 126 -51
v 40 24 -54
v 40 30 -54
v 43 24 -54
v 43 30 -54
v 18 24 -57
v 18 32 -57
v 18 36 -57
v 18 44 -57
v 21 26 -57
v 21 30 -57
v 21 38 -57
v 21 42 -57
v 35 32 -57
v 35 36 -57
v 35 42 -57
v 35 44 -57
v 38 30 -57
v 38 38 -57
v 38 42 -57
v 38 44 -57
v 40 24 -57
v 40 26 -57
v 17 24 -62
v 17 57 -62
v 40 24 -62
v 40 30 -62
v 43 30 -62
v 43 57 -62
v 18 24 -60
v 18 32 -60
v 18 36 -60
v 18 44 -60
v 21 26 -60
v 21 30 -60
v 21 38 -60
v 21 42 -60
v 35 32 -60
v 35 36 -60
v 35 42 -60
v 35 44 -60
v 38 30 -60
v 38 38 -60
v 38 42 -60
v 38 44 -60
v 40 24 -60
v 40 26 -60
v -63 0 -63
v -63 10 -63
v -63 126 -63
v 63 0 -63
v 63 10 -63
v 63 126 -63
v -63 0 -51
v 63 0 -51
v -63 0 -63
v 63 0 -63
v 43 29 -50
v 44 29 -50
v 43 29 -51
v 44 29 -51
v 21 30 -57
v 38 30 -57
v 21 30 -60
v 38 30 -60
v 18 36 -57
v 35 36 -57
v 18 36 -60
v 35 36 -60
v 21 42 -57
v 35 42 -57
v 38 42 -57
v 21 42 -60
v 35 42 -60
v 38 42 -60
v 43 50 -50
v 44 50 -50
v 43 50 -51
v 44 50 -51
v 17 57 -50
v 43 57 -50
v 17 57 -51
v 43 57 -51
v 17 57 -62
v 43 57 -62
v 21 58 -49
v 26 58 -49
v 21 58 -50
v 26 58 -50
v 29 61 -49
v 34 61 -49
v 29 61 -50
v 34 61 -50
v 26 100 -50
v 30 100 -50
v 26 100 -51
v 30 100 -51
v 27 101 -49
v 29 101 -49
v 27 101 -50
v 29 101 -50
v 17 24 -51
v 43 24 -51
v 40 24 -54
v 43 24 -54
v 18 24 -57
v 40 24 -57
v 18 24 -60
v 40 24 -60
v 17 24 -62
v 40 24 -62
v 21 26 -57
v 40 26 -57
v 21 26 -60
v 40 26 -60
v 40 30 -54
v 43 30 -54
v 40 30 -62
v 43 30 -62
v 43 32 -50
v 44 32 -50
v 43 32 -51
v 44 32 -51
v 18 32 -57
v 35 32 -57
v 18 32 -60
v 35 32 -60
v 21 38 -57
v 38 38 -57
v 21 38 -60
v 38 38 -60
v 18 44 -57
v 35 44 -57
v 38 44 -57
v 18 44 -60
v 35 44 -60
v 38 44 -60
v 43 53 -50
v 44 53 -50
v 43 53 -51
v 44 53 -51
v 21 63 -49
v 26 63 -49
v 29 63 -49
v 34 63 -49
v 21 63 -50
v 26 63 -50
v 29 63 -50
v 34 63 -50
v 17 66 -50
v 43 66 -50
v 17 66 -51
v 43 66 -51
v 27 106 -49
v 29 106 -49
v 27 106 -50
v 29 106 -50
v 26 107 -50
v 30 107 -50
v 26 107 -51
v 30 107 -51
v -63 126 -51
v 63 126 -51
v -63 126 -63
v 63 126 -63

# faces
f 3/5/1 2/5/1 1/5/1
f 4/5/1 2/5/1 3/5/1
f 5/2/1 4/2/1 3/2/1
f 6/2/1 4/2/1 5/2/1
f 9/3/1 8/3/1 7/3/1
f 10/3/1 8/3/1 9/3/1
f 13/3/1 12/3/1 11/3/1
f 14/3/1 12/3/1 13/3/1
f 17/3/1 16/3/1 15/3/1
f 18/3/1 16/3/1 17/3/1
f 21/4/1 20/4/1 19/4/1
f 22/4/1 20/4/1 21/4/1
f 25/4/1 24/4/1 23/4/1
f 26/4/1 24/4/1 25/4/1
f 29/1/1 28/1/1 27/1/1
f 30/1/1 28/1/1 29/1/1
f 33/4/1 32/4/1 31/4/1
f 34/4/1 32/4/1 33/4/1
f 37/3/1 36/3/1 35/3/1
f 38/3/1 36/3/1 37/3/1
f 43/4/1 40/4/1 39/4/1
f 44/4/1 42/4/1 41/4/1
f 45/4/1 43/4/1 39/4/1
f 45/4/1 44/4/1 43/4/1
f 46/4/1 42/4/1 44/4/1
f 46/4/1 44/4/1 45/4/1
f 50/2/1 48/2/1 47/2/1
f 51/2/1 48/2/1 50/2/1
f 53/3/1 50/3/1 49/3/1
f 54/2/1 52/2/1 51/2/1
f 54/3/1 50/3/1 53/3/1
f 54/2/1 51/2/1 50/2/1
f 56/2/1 52/2/1 54/2/1
f 57/3/1 56/3/1 55/3/1
f 58/2/1 52/2/1 56/2/1
f 58/3/1 56/3/1 57/3/1
f 59/2/1 52/2/1 58/2/1
f 60/2/1 52/2/1 59/2/1
f 61/2/2 62/2/2 63/2/2
f 63/2/2 62/2/2 64/2/2
f 65/3/2 66/3/2 67/3/2
f 67/3/2 66/3/2 68/3/2
f 69/3/2 70/3/2 71/3/2
f 71/3/2 70/3/2 72/3/2
f 73/4/2 74/4/2 75/4/2
f 75/4/2 74/4/2 76/4/2
f 77/1/2 78/1/2 79/1/2
f 79/1/2 78/1/2 80/1/2
f 81/4/2 82/4/2 83/4/2
f 83/4/2 82/4/2 84/4/2
f 85/4/2 86/4/2 87/4/2
f 87/4/2 86/4/2 88/4/2
f 89/3/2 90/3/2 91/3/2
f 91/3/2 90/3/2 92/3/2
f 93/4/2 94/4/2 95/4/2
f 95/4/2 94/4/2 96/4/2
f 97/3/2 98/3/2 99/3/2
f 99/3/2 98/3/2 100/3/2
f 101/3/2 102/3/2 103/3/2
f 103/3/2 102/3/2 104/3/2
f 105/3/2 106/3/2 107/3/2
f 107/3/2 106/3/2 108/3/2
f 109/5/2 110/5/2 111/5/2
f 111/5/2 110/5/2 112/5/2
f 111/2/2 112/2/2 113/2/2
f 113/2/2 112/2/2 114/2/2
f 117/4/3 116/4/3 115/4/3
f 118/4/3 116/4/3 117/4/3
f 119/4/3 117/4/3 115/4/3
f 119/3/3 118/3/3 117/3/3
f 120/4/3 116/4/3 118/4/3
f 120/3/3 118/3/3 119/3/3
f 121/4/3 119/4/3 115/4/3
f 121/4/3 120/4/3 119/4/3
f 122/4/3 116/4/3 120/4/3
f 122/4/3 120/4/3 121/4/3
f 127/1/3 124/1/3 123/1/3
f 128/1/3 124/1/3 127/1/3
f 129/4/3 126/4/3 125/4/3
f 130/4/3 126/4/3 129/4/3
f 133/3/3 132/3/3 131/3/3
f 134/3/3 132/3/3 133/3/3
f 135/3/3 133/3/3 131/3/3
f 136/3/3 132/3/3 134/3/3
f 139/4/3 138/4/3 137/4/3
f 140/4/3 138/4/3 139/4/3
f 141/3/3 136/3/3 135/3/3
f 142/3/3 132/3/3 136/3/3
f 142/3/3 136/3/3 141/3/3
f 143/4/3 139/4/3 137/4/3
f 144/4/3 138/4/3 140/4/3
f 145/4/3 143/4/3 137/4/3
f 145/4/3 144/4/3 143/4/3
f 146/4/3 138/4/3 144/4/3
f 146/4/3 144/4/3 145/4/3
f 147/3/3 141/3/3 135/3/3
f 148/3/3 132/3/3 142/3/3
f 153/3/3 135/3/3 131/3/3
f 153/3/3 147/3/3 135/3/3
f 153/3/3 148/3/3 147/3/3
f 154/3/3 132/3/3 148/3/3
f 154/3/3 148/3/3 153/3/3
f 155/3/3 150/3/3 149/3/3
f 156/3/3 150/3/3 155/3/3
f 157/3/3 152/3/3 151/3/3
f 158/3/3 152/3/3 157/3/3
f 162/2/3 161/2/3 160/2/3
f 163/2/3 161/2/3 162/2/3
f 164/2/3 161/2/3 163/2/3
f 165/2/3 161/2/3 164/2/3
f 166/2/3 161/2/3 165/2/3
f 167/2/3 165/2/3 164/2/3
f 168/2/3 161/2/3 166/2/3
f 169/2/3 162/2/3 160/2/3
f 175/2/3 168/2/3 167/2/3
f 175/2/3 167/2/3 164/2/3
f 176/2/3 170/2/3 169/2/3
f 177/2/3 172/2/3 171/2/3
f 178/2/3 172/2/3 177/2/3
f 179/2/3 174/2/3 173/2/3
f 179/2/3 175/2/3 174/2/3
f 180/5/3 160/5/3 159/5/3
f 181/2/3 179/2/3 178/2/3
f 181/5/3 160/5/3 180/5/3
f 181/2/3 178/2/3 177/2/3
f 181/2/3 176/2/3 169/2/3
f 181/2/3 169/2/3 160/2/3
f 181/2/3 177/2/3 176/2/3
f 182/2/3 175/2/3 179/2/3
f 182/2/3 179/2/3 181/2/3
f 182/2/3 161/2/3 168/2/3
f 182/2/3 168/2/3 175/2/3
f 185/4/3 184/4/3 183/4/3
f 186/4/3 184/4/3 185/4/3
f 191/3/3 188/3/3 187/3/3
f 192/3/3 188/3/3 191/3/3
f 193/3/3 190/3/3 189/3/3
f 194/3/3 190/3/3 193/3/3
f 195/3/3 188/3/3 192/3/3
f 196/3/3 193/3/3 189/3/3
f 197/3/3 190/3/3 194/3/3
f 198/3/3 190/3/3 197/3/3
f 199/3/3 196/3/3 195/3/3
f 199/3/3 195/3/3 192/3/3
f 200/3/3 193/3/3 196/3/3
f 200/3/3 196/3/3 199/3/3
f 201/4/3 198/4/3 197/4/3
f 202/4/3 198/4/3 201/4/3
f 203/3/3 191/3/3 187/3/3
f 204/3/3 191/3/3 203/3/3
f 207/2/3 206/2/3 205/2/3
f 208/2/3 206/2/3 207/2/3
f 209/2/3 206/2/3 208/2/3
f 210/2/3 206/2/3 209/2/3
f 211/3/4 212/3/4 215/3/4
f 215/3/4 212/3/4 216/3/4
f 213/3/4 214/3/4 217/3/4
f 217/3/4 214/3/4 218/3/4
f 216/3/4 212/3/4 219/3/4
f 213/3/4 217/3/4 220/3/4
f 218/3/4 214/3/4 221/3/4
f 221/3/4 214/3/4 222/3/4
f 219/3/4 220/3/4 223/3/4
f 216/3/4 219/3/4 223/3/4
f 220/3/4 217/3/4 224/3/4
f 223/3/4 220/3/4 224/3/4
f 221/4/4 222/4/4 225/4/4
f 225/4/4 222/4/4 226/4/4
f 211/3/4 215/3/4 227/3/4
f 227/3/4 215/3/4 228/3/4
f 229/5/4 230/5/4 232/5/4
f 230/2/4 231/2/4 233/2/4
f 232/5/4 230/5/4 233/5/4
f 233/2/4 231/2/4 234/2/4
f 237/5/5 236/5/5 235/5/5
f 238/5/5 236/5/5 237/5/5
f 241/3/5 240/3/5 239/3/5
f 242/3/5 240/3/5 241/3/5
f 245/3/5 244/3/5 243/3/5
f 246/3/5 244/3/5 245/3/5
f 249/3/5 248/3/5 247/3/5
f 250/3/5 248/3/5 249/3/5
f 254/3/5 252/3/5 251/3/5
f 255/4/5 253/4/5 252/4/5
f 255/3/5 252/3/5 254/3/5
f 256/4/5 253/4/5 255/4/5
f 259/3/5 258/3/5 257/3/5
f 260/3/5 258/3/5 259/3/5
f 263/3/5 262/3/5 261/3/5
f 264/3/5 262/3/5 263/3/5
f 265/2/5 264/2/5 263/2/5
f 266/2/5 264/2/5 265/2/5
f 269/4/5 268/4/5 267/4/5
f 270/4/5 268/4/5 269/4/5
f 273/4/5 272/4/5 271/4/5
f 274/4/5 272/4/5 273/4/5
f 277/4/5 276/4/5 275/4/5
f 278/4/5 276/4/5 277/4/5
f 281/1/5 280/1/5 279/1/5
f 282/1/5 280/1/5 281/1/5
f 283/2/6 284/2/6 285/2/6
f 285/2/6 284/2/6 286/2/6
f 283/2/6 285/2/6 287/2/6
f 287/2/6 285/2/6 288/2/6
f 283/2/6 287/2/6 289/2/6
f 283/2/6 289/2/6 291/2/6
f 289/2/6 290/2/6 291/2/6
f 291/2/6 290/2/6 292/2/6
f 293/3/6 294/3/6 295/3/6
f 295/3/6 294/3/6 296/3/6
f 297/4/6 298/4/6 299/4/6
f 299/4/6 298/4/6 300/4/6
f 301/3/6 302/3/6 303/3/6
f 303/3/6 302/3/6 304/3/6
f 305/3/6 306/3/6 307/3/6
f 307/3/6 306/3/6 308/3/6
f 309/3/6 310/3/6 311/3/6
f 311/3/6 310/3/6 312/3/6
f 313/3/6 314/3/6 316/3/6
f 314/4/6 315/4/6 317/4/6
f 316/3/6 314/3/6 317/3/6
f 317/4/6 315/4/6 318/4/6
f 319/3/6 320/3/6 321/3/6
f 321/3/6 320/3/6 322/3/6
f 323/4/6 324/4/6 327/4/6
f 327/4/6 324/4/6 328/4/6
f 325/4/6 326/4/6 329/4/6
f 329/4/6 326/4/6 330/4/6
f 331/3/6 332/3/6 333/3/6
f 333/3/6 332/3/6 334/3/6
f 335/1/6 336/1/6 337/1/6
f 337/1/6 336/1/6 338/1/6
f 339/4/6 340/4/6 341/4/6
f 341/4/6 340/4/6 342/4/6
f 343/2/6 344/2/6 345/2/6
f 345/2/6 344/2/6 346/2/6
