# MagicaVoxel @ Ephtracy

# group
g pix-1

# material
mtllib pix-1.mtl
usemtl palette

# normals
vn -1 0 0
vn 1 0 0
vn 0 0 1
vn 0 0 -1
vn 0 -1 0
vn 0 1 0

# texcoords
vt 0.939453 0.5
vt 0.970703 0.5
vt 0.978516 0.5
vt 0.982422 0.5
vt 0.986328 0.5
vt 0.990234 0.5

# verts
v -12.5 0 15
v -12.5 0 6
v -12.5 1 15
v -12.5 1 6
v -11.5 0 6
v -11.5 0 5
v -11.5 1 6
v -11.5 1 5
v -10.5 0 5
v -10.5 0 3
v -10.5 1 5
v -10.5 1 3
v -9.5 0 3
v -9.5 0 2
v -9.5 1 3
v -9.5 1 2
v -8.5 0 2
v -8.5 0 1
v -8.5 1 2
v -8.5 1 1
v -7.5 0 1
v -7.5 0 -0
v -7.5 1 1
v -7.5 1 -0
v -6.5 0 -0
v -6.5 0 -1
v -6.5 1 -0
v -6.5 1 -1
v -5.5 0 -1
v -5.5 0 -2
v -5.5 1 -1
v -5.5 1 -2
v -3.5 0 -2
v -3.5 0 -3
v -3.5 1 -2
v -3.5 1 -3
v -2.5 0 -3
v -2.5 0 -4
v -2.5 1 -3
v -2.5 1 -4
v 0.5 0 -4
v 0.5 0 -5
v 0.5 0 -14
v 0.5 0 -15
v 0.5 1 -4
v 0.5 1 -5
v 0.5 1 -14
v 0.5 1 -15
v 1.5 0 -5
v 1.5 0 -6
v 1.5 0 -13
v 1.5 0 -14
v 1.5 1 -5
v 1.5 1 -6
v 1.5 1 -13
v 1.5 1 -14
v 2.5 0 -11
v 2.5 0 -13
v 2.5 1 -11
v 2.5 1 -13
v 3.5 0 -9
v 3.5 0 -11
v 3.5 1 -9
v 3.5 1 -11
v 4.5 0 -2
v 4.5 0 -3
v 4.5 0 -7
v 4.5 0 -8
v 4.5 0 -9
v 4.5 1 -2
v 4.5 1 -3
v 4.5 1 -7
v 4.5 1 -8
v 4.5 1 -9
v 5.5 0 -6
v 5.5 0 -7
v 5.5 1 -6
v 5.5 1 -7
v 6.5 0 -1
v 6.5 0 -2
v 6.5 1 -1
v 6.5 1 -2
v 7.5 0 1
v 7.5 0 -1
v 7.5 1 1
v 7.5 1 -1
v 8.5 0 3
v 8.5 0 2
v 8.5 0 1
v 8.5 1 3
v 8.5 1 2
v 8.5 1 1
v 9.5 0 6
v 9.5 0 5
v 9.5 0 3
v 9.5 1 6
v 9.5 1 5
v 9.5 1 3
v 10.5 0 10
v 10.5 0 9
v 10.5 0 8
v 10.5 0 6
v 10.5 1 10
v 10.5 1 9
v 10.5 1 8
v 10.5 1 6
v 11.5 0 15
v 11.5 0 13
v 11.5 0 12
v 11.5 0 10
v 11.5 1 15
v 11.5 1 13
v 11.5 1 12
v 11.5 1 10
v -11.5 0 15
v -11.5 0 14
v -11.5 1 15
v -11.5 1 14
v -10.5 0 14
v -10.5 0 9
v -10.5 1 14
v -10.5 1 9
v -9.5 0 9
v -9.5 0 7
v -9.5 1 9
v -9.5 1 7
v -8.5 0 7
v -8.5 0 6
v -8.5 1 7
v -8.5 1 6
v -7.5 0 6
v -7.5 0 5
v -7.5 1 6
v -7.5 1 5
v -6.5 0 5
v -6.5 0 4
v -6.5 1 5
v -6.5 1 4
v -5.5 0 4
v -5.5 0 3
v -5.5 1 4
v -5.5 1 3
v -4.5 0 3
v -4.5 0 1
v -4.5 1 3
v -4.5 1 1
v -3.5 0 1
v -3.5 0 -0
v -3.5 1 1
v -3.5 1 -0
v -1.5 0 -0
v -1.5 0 -1
v -1.5 1 -0
v -1.5 1 -1
v 0.5 0 -1
v 0.5 0 -2
v 0.5 1 -1
v 0.5 1 -2
v 3.5 0 -2
v 3.5 0 -3
v 3.5 0 -14
v 3.5 0 -15
v 3.5 1 -2
v 3.5 1 -3
v 3.5 1 -14
v 3.5 1 -15
v 4.5 0 -13
v 4.5 0 -14
v 4.5 1 -13
v 4.5 1 -14
v 5.5 0 -11
v 5.5 0 -12
v 5.5 0 -13
v 5.5 1 -11
v 5.5 1 -12
v 5.5 1 -13
v 7.5 0 -10
v 7.5 0 -11
v 7.5 1 -10
v 7.5 1 -11
v 8.5 0 -9
v 8.5 0 -10
v 8.5 1 -9
v 8.5 1 -10
v 9.5 0 -8
v 9.5 0 -9
v 9.5 1 -8
v 9.5 1 -9
v 10.5 0 2
v 10.5 0 -1
v 10.5 0 -2
v 10.5 0 -8
v 10.5 1 2
v 10.5 1 -1
v 10.5 1 -2
v 10.5 1 -8
v 11.5 0 8
v 11.5 0 4
v 11.5 0 3
v 11.5 0 2
v 11.5 1 8
v 11.5 1 4
v 11.5 1 3
v 11.5 1 2
v 12.5 0 15
v 12.5 0 13
v 12.5 0 12
v 12.5 0 9
v 12.5 0 8
v 12.5 1 15
v 12.5 1 13
v 12.5 1 12
v 12.5 1 9
v 12.5 1 8
v -12.5 0 15
v -12.5 1 15
v -11.5 0 15
v -11.5 1 15
v 11.5 0 15
v 11.5 1 15
v 12.5 0 15
v 12.5 1 15
v -11.5 0 14
v -11.5 1 14
v -10.5 0 14
v -10.5 1 14
v 10.5 0 10
v 10.5 1 10
v 11.5 0 10
v 11.5 1 10
v -10.5 0 9
v -10.5 1 9
v -9.5 0 9
v -9.5 1 9
v -9.5 0 7
v -9.5 1 7
v -8.5 0 7
v -8.5 1 7
v -8.5 0 6
v -8.5 1 6
v -7.5 0 6
v -7.5 1 6
v 9.5 0 6
v 9.5 1 6
v 10.5 0 6
v 10.5 1 6
v -7.5 0 5
v -7.5 1 5
v -6.5 0 5
v -6.5 1 5
v -6.5 0 4
v -6.5 1 4
v -5.5 0 4
v -5.5 1 4
v -5.5 0 3
v -5.5 1 3
v -4.5 0 3
v -4.5 1 3
v 8.5 0 3
v 8.5 1 3
v 9.5 0 3
v 9.5 1 3
v -4.5 0 1
v -4.5 1 1
v -3.5 0 1
v -3.5 1 1
v 7.5 0 1
v 7.5 1 1
v 8.5 0 1
v 8.5 1 1
v -3.5 0 -0
v -3.5 1 -0
v -1.5 0 -0
v -1.5 1 -0
v -1.5 0 -1
v -1.5 1 -1
v 0.5 0 -1
v 0.5 1 -1
v 6.5 0 -1
v 6.5 1 -1
v 7.5 0 -1
v 7.5 1 -1
v 0.5 0 -2
v 0.5 1 -2
v 1.5 0 -2
v 1.5 1 -2
v 3.5 0 -2
v 3.5 1 -2
v 4.5 0 -2
v 4.5 1 -2
v 5.5 0 -2
v 5.5 1 -2
v 6.5 0 -2
v 6.5 1 -2
v 3.5 0 -3
v 3.5 1 -3
v 4.5 0 -3
v 4.5 1 -3
v 4.5 0 -7
v 4.5 1 -7
v 5.5 0 -7
v 5.5 1 -7
v 3.5 0 -9
v 3.5 1 -9
v 4.5 0 -9
v 4.5 1 -9
v 2.5 0 -11
v 2.5 1 -11
v 3.5 0 -11
v 3.5 1 -11
v 1.5 0 -13
v 1.5 1 -13
v 2.5 0 -13
v 2.5 1 -13
v 0.5 0 -14
v 0.5 1 -14
v 1.5 0 -14
v 1.5 1 -14
v 11.5 0 8
v 11.5 1 8
v 12.5 0 8
v 12.5 1 8
v -12.5 0 6
v -12.5 1 6
v -11.5 0 6
v -11.5 1 6
v -11.5 0 5
v -11.5 1 5
v -10.5 0 5
v -10.5 1 5
v -10.5 0 3
v -10.5 1 3
v -9.5 0 3
v -9.5 1 3
v -9.5 0 2
v -9.5 1 2
v -8.5 0 2
v -8.5 1 2
v 10.5 0 2
v 10.5 1 2
v 11.5 0 2
v 11.5 1 2
v -8.5 0 1
v -8.5 1 1
v -7.5 0 1
v -7.5 1 1
v -7.5 0 -0
v -7.5 1 -0
v -6.5 0 -0
v -6.5 1 -0
v -6.5 0 -1
v -6.5 1 -1
v -5.5 0 -1
v -5.5 1 -1
v -5.5 0 -2
v -5.5 1 -2
v -3.5 0 -2
v -3.5 1 -2
v -3.5 0 -3
v -3.5 1 -3
v -2.5 0 -3
v -2.5 1 -3
v -2.5 0 -4
v -2.5 1 -4
v -1.5 0 -4
v -1.5 1 -4
v 0.5 0 -4
v 0.5 1 -4
v 0.5 0 -5
v 0.5 1 -5
v 1.5 0 -5
v 1.5 1 -5
v 1.5 0 -6
v 1.5 1 -6
v 2.5 0 -6
v 2.5 1 -6
v 3.5 0 -6
v 3.5 1 -6
v 5.5 0 -6
v 5.5 1 -6
v 9.5 0 -8
v 9.5 1 -8
v 10.5 0 -8
v 10.5 1 -8
v 8.5 0 -9
v 8.5 1 -9
v 9.5 0 -9
v 9.5 1 -9
v 7.5 0 -10
v 7.5 1 -10
v 8.5 0 -10
v 8.5 1 -10
v 5.5 0 -11
v 5.5 1 -11
v 6.5 0 -11
v 6.5 1 -11
v 7.5 0 -11
v 7.5 1 -11
v 4.5 0 -13
v 4.5 1 -13
v 5.5 0 -13
v 5.5 1 -13
v 3.5 0 -14
v 3.5 1 -14
v 4.5 0 -14
v 4.5 1 -14
v 0.5 0 -15
v 0.5 1 -15
v 3.5 0 -15
v 3.5 1 -15
v -12.5 0 15
v -11.5 0 15
v 11.5 0 15
v 12.5 0 15
v -11.5 0 14
v -10.5 0 14
v 11.5 0 13
v 12.5 0 13
v 11.5 0 12
v 12.5 0 12
v 10.5 0 10
v 11.5 0 10
v -10.5 0 9
v -9.5 0 9
v 10.5 0 9
v 11.5 0 9
v 12.5 0 9
v 10.5 0 8
v 11.5 0 8
v 12.5 0 8
v -9.5 0 7
v -8.5 0 7
v -12.5 0 6
v -11.5 0 6
v -8.5 0 6
v -7.5 0 6
v 9.5 0 6
v 10.5 0 6
v -11.5 0 5
v -10.5 0 5
v -7.5 0 5
v -6.5 0 5
v 9.5 0 5
v 10.5 0 5
v -6.5 0 4
v -5.5 0 4
v 10.5 0 4
v 11.5 0 4
v -10.5 0 3
v -9.5 0 3
v -5.5 0 3
v -4.5 0 3
v 8.5 0 3
v 9.5 0 3
v 10.5 0 3
v 11.5 0 3
v -9.5 0 2
v -8.5 0 2
v 8.5 0 2
v 9.5 0 2
v 10.5 0 2
v 11.5 0 2
v -8.5 0 1
v -7.5 0 1
v -4.5 0 1
v -3.5 0 1
v 7.5 0 1
v 8.5 0 1
v 9.5 0 1
v -7.5 0 -0
v -6.5 0 -0
v -3.5 0 -0
v -1.5 0 -0
v 8.5 0 -0
v 9.5 0 -0
v -6.5 0 -1
v -5.5 0 -1
v -1.5 0 -1
v 0.5 0 -1
v 6.5 0 -1
v 7.5 0 -1
v 9.5 0 -1
v 10.5 0 -1
v -5.5 0 -2
v -3.5 0 -2
v -0.5 0 -2
v 0.5 0 -2
v 1.5 0 -2
v 3.5 0 -2
v 4.5 0 -2
v 5.5 0 -2
v 6.5 0 -2
v 7.5 0 -2
v 8.5 0 -2
v 9.5 0 -2
v 10.5 0 -2
v -3.5 0 -3
v -2.5 0 -3
v -1.5 0 -3
v -0.5 0 -3
v 0.5 0 -3
v 1.5 0 -3
v 2.5 0 -3
v 3.5 0 -3
v 4.5 0 -3
v 5.5 0 -3
v 6.5 0 -3
v 7.5 0 -3
v 8.5 0 -3
v -2.5 0 -4
v -1.5 0 -4
v 0.5 0 -4
v 1.5 0 -4
v 2.5 0 -4
v 3.5 0 -4
v 4.5 0 -4
v 5.5 0 -4
v 6.5 0 -4
v 7.5 0 -4
v 0.5 0 -5
v 1.5 0 -5
v 2.5 0 -5
v 5.5 0 -5
v 6.5 0 -5
v 7.5 0 -5
v 8.5 0 -5
v 1.5 0 -6
v 2.5 0 -6
v 3.5 0 -6
v 5.5 0 -6
v 6.5 0 -6
v 4.5 0 -7
v 5.5 0 -7
v 4.5 0 -8
v 5.5 0 -8
v 6.5 0 -8
v 7.5 0 -8
v 8.5 0 -8
v 9.5 0 -8
v 10.5 0 -8
v 3.5 0 -9
v 4.5 0 -9
v 5.5 0 -9
v 6.5 0 -9
v 8.5 0 -9
v 9.5 0 -9
v 5.5 0 -10
v 6.5 0 -10
v 7.5 0 -10
v 8.5 0 -10
v 2.5 0 -11
v 3.5 0 -11
v 4.5 0 -11
v 5.5 0 -11
v 6.5 0 -11
v 7.5 0 -11
v 3.5 0 -12
v 4.5 0 -12
v 5.5 0 -12
v 1.5 0 -13
v 2.5 0 -13
v 4.5 0 -13
v 5.5 0 -13
v 0.5 0 -14
v 1.5 0 -14
v 3.5 0 -14
v 4.5 0 -14
v 0.5 0 -15
v 3.5 0 -15
v -12.5 1 15
v -11.5 1 15
v 11.5 1 15
v 12.5 1 15
v -11.5 1 14
v -10.5 1 14
v 11.5 1 13
v 12.5 1 13
v 11.5 1 12
v 12.5 1 12
v 10.5 1 10
v 11.5 1 10
v -10.5 1 9
v -9.5 1 9
v 10.5 1 9
v 11.5 1 9
v 12.5 1 9
v 10.5 1 8
v 11.5 1 8
v 12.5 1 8
v -9.5 1 7
v -8.5 1 7
v -12.5 1 6
v -11.5 1 6
v -8.5 1 6
v -7.5 1 6
v 9.5 1 6
v 10.5 1 6
v -11.5 1 5
v -10.5 1 5
v -7.5 1 5
v -6.5 1 5
v 9.5 1 5
v 10.5 1 5
v -6.5 1 4
v -5.5 1 4
v 10.5 1 4
v 11.5 1 4
v -10.5 1 3
v -9.5 1 3
v -5.5 1 3
v -4.5 1 3
v 8.5 1 3
v 9.5 1 3
v 10.5 1 3
v 11.5 1 3
v -9.5 1 2
v -8.5 1 2
v 8.5 1 2
v 9.5 1 2
v 10.5 1 2
v 11.5 1 2
v -8.5 1 1
v -7.5 1 1
v -4.5 1 1
v -3.5 1 1
v 7.5 1 1
v 8.5 1 1
v 9.5 1 1
v -7.5 1 -0
v -6.5 1 -0
v -3.5 1 -0
v -1.5 1 -0
v 8.5 1 -0
v 9.5 1 -0
v -6.5 1 -1
v -5.5 1 -1
v -1.5 1 -1
v 0.5 1 -1
v 6.5 1 -1
v 7.5 1 -1
v 9.5 1 -1
v 10.5 1 -1
v -5.5 1 -2
v -3.5 1 -2
v -0.5 1 -2
v 0.5 1 -2
v 1.5 1 -2
v 3.5 1 -2
v 4.5 1 -2
v 5.5 1 -2
v 6.5 1 -2
v 7.5 1 -2
v 8.5 1 -2
v 9.5 1 -2
v 10.5 1 -2
v -3.5 1 -3
v -2.5 1 -3
v -1.5 1 -3
v -0.5 1 -3
v 0.5 1 -3
v 1.5 1 -3
v 2.5 1 -3
v 3.5 1 -3
v 4.5 1 -3
v 5.5 1 -3
v 6.5 1 -3
v 7.5 1 -3
v 8.5 1 -3
v -2.5 1 -4
v -1.5 1 -4
v 0.5 1 -4
v 1.5 1 -4
v 2.5 1 -4
v 3.5 1 -4
v 4.5 1 -4
v 5.5 1 -4
v 6.5 1 -4
v 7.5 1 -4
v 0.5 1 -5
v 1.5 1 -5
v 2.5 1 -5
v 5.5 1 -5
v 6.5 1 -5
v 7.5 1 -5
v 8.5 1 -5
v 1.5 1 -6
v 2.5 1 -6
v 3.5 1 -6
v 5.5 1 -6
v 6.5 1 -6
v 4.5 1 -7
v 5.5 1 -7
v 4.5 1 -8
v 5.5 1 -8
v 6.5 1 -8
v 7.5 1 -8
v 8.5 1 -8
v 9.5 1 -8
v 10.5 1 -8
v 3.5 1 -9
v 4.5 1 -9
v 5.5 1 -9
v 6.5 1 -9
v 8.5 1 -9
v 9.5 1 -9
v 5.5 1 -10
v 6.5 1 -10
v 7.5 1 -10
v 8.5 1 -10
v 2.5 1 -11
v 3.5 1 -11
v 4.5 1 -11
v 5.5 1 -11
v 6.5 1 -11
v 7.5 1 -11
v 3.5 1 -12
v 4.5 1 -12
v 5.5 1 -12
v 1.5 1 -13
v 2.5 1 -13
v 4.5 1 -13
v 5.5 1 -13
v 0.5 1 -14
v 1.5 1 -14
v 3.5 1 -14
v 4.5 1 -14
v 0.5 1 -15
v 3.5 1 -15

# faces
f 3/2/1 2/2/1 1/2/1
f 4/2/1 2/2/1 3/2/1
f 7/2/1 6/2/1 5/2/1
f 8/2/1 6/2/1 7/2/1
f 11/2/1 10/2/1 9/2/1
f 12/2/1 10/2/1 11/2/1
f 15/2/1 14/2/1 13/2/1
f 16/2/1 14/2/1 15/2/1
f 19/2/1 18/2/1 17/2/1
f 20/2/1 18/2/1 19/2/1
f 23/2/1 22/2/1 21/2/1
f 24/2/1 22/2/1 23/2/1
f 27/2/1 26/2/1 25/2/1
f 28/2/1 26/2/1 27/2/1
f 31/2/1 30/2/1 29/2/1
f 32/2/1 30/2/1 31/2/1
f 35/2/1 34/2/1 33/2/1
f 36/2/1 34/2/1 35/2/1
f 39/2/1 38/2/1 37/2/1
f 40/2/1 38/2/1 39/2/1
f 45/2/1 42/2/1 41/2/1
f 46/2/1 42/2/1 45/2/1
f 47/3/1 44/3/1 43/3/1
f 48/3/1 44/3/1 47/3/1
f 53/2/1 50/2/1 49/2/1
f 54/2/1 50/2/1 53/2/1
f 55/3/1 52/3/1 51/3/1
f 56/3/1 52/3/1 55/3/1
f 59/3/1 58/3/1 57/3/1
f 60/3/1 58/3/1 59/3/1
f 63/3/1 62/3/1 61/3/1
f 64/3/1 62/3/1 63/3/1
f 70/5/1 66/5/1 65/5/1
f 71/5/1 66/5/1 70/5/1
f 72/1/1 68/1/1 67/1/1
f 73/4/1 69/4/1 68/4/1
f 73/1/1 68/1/1 72/1/1
f 74/4/1 69/4/1 73/4/1
f 77/6/1 76/6/1 75/6/1
f 78/6/1 76/6/1 77/6/1
f 81/1/1 80/1/1 79/1/1
f 82/1/1 80/1/1 81/1/1
f 85/5/1 84/5/1 83/5/1
f 86/5/1 84/5/1 85/5/1
f 90/5/1 88/5/1 87/5/1
f 91/6/1 89/6/1 88/6/1
f 91/5/1 88/5/1 90/5/1
f 92/6/1 89/6/1 91/6/1
f 96/6/1 94/6/1 93/6/1
f 97/5/1 95/5/1 94/5/1
f 97/6/1 94/6/1 96/6/1
f 98/5/1 95/5/1 97/5/1
f 103/5/1 100/5/1 99/5/1
f 104/6/1 101/6/1 100/6/1
f 104/5/1 100/5/1 103/5/1
f 105/5/1 102/5/1 101/5/1
f 105/6/1 101/6/1 104/6/1
f 106/5/1 102/5/1 105/5/1
f 111/6/1 108/6/1 107/6/1
f 112/5/1 109/5/1 108/5/1
f 112/6/1 108/6/1 111/6/1
f 113/6/1 110/6/1 109/6/1
f 113/5/1 109/5/1 112/5/1
f 114/6/1 110/6/1 113/6/1
f 115/2/2 116/2/2 117/2/2
f 117/2/2 116/2/2 118/2/2
f 119/2/2 120/2/2 121/2/2
f 121/2/2 120/2/2 122/2/2
f 123/2/2 124/2/2 125/2/2
f 125/2/2 124/2/2 126/2/2
f 127/2/2 128/2/2 129/2/2
f 129/2/2 128/2/2 130/2/2
f 131/2/2 132/2/2 133/2/2
f 133/2/2 132/2/2 134/2/2
f 135/2/2 136/2/2 137/2/2
f 137/2/2 136/2/2 138/2/2
f 139/2/2 140/2/2 141/2/2
f 141/2/2 140/2/2 142/2/2
f 143/2/2 144/2/2 145/2/2
f 145/2/2 144/2/2 146/2/2
f 147/2/2 148/2/2 149/2/2
f 149/2/2 148/2/2 150/2/2
f 151/2/2 152/2/2 153/2/2
f 153/2/2 152/2/2 154/2/2
f 155/2/2 156/2/2 157/2/2
f 157/2/2 156/2/2 158/2/2
f 159/1/2 160/1/2 163/1/2
f 163/1/2 160/1/2 164/1/2
f 161/3/2 162/3/2 165/3/2
f 165/3/2 162/3/2 166/3/2
f 167/6/2 168/6/2 169/6/2
f 169/6/2 168/6/2 170/6/2
f 171/6/2 172/6/2 174/6/2
f 172/3/2 173/3/2 175/3/2
f 174/6/2 172/6/2 175/6/2
f 175/3/2 173/3/2 176/3/2
f 177/6/2 178/6/2 179/6/2
f 179/6/2 178/6/2 180/6/2
f 181/1/2 182/1/2 183/1/2
f 183/1/2 182/1/2 184/1/2
f 185/5/2 186/5/2 187/5/2
f 187/5/2 186/5/2 188/5/2
f 189/5/2 190/5/2 193/5/2
f 190/6/2 191/6/2 194/6/2
f 193/5/2 190/5/2 194/5/2
f 191/1/2 192/1/2 195/1/2
f 194/6/2 191/6/2 195/6/2
f 195/1/2 192/1/2 196/1/2
f 197/5/2 198/5/2 201/5/2
f 198/6/2 199/6/2 202/6/2
f 201/5/2 198/5/2 202/5/2
f 199/3/2 200/3/2 203/3/2
f 202/6/2 199/6/2 203/6/2
f 203/3/2 200/3/2 204/3/2
f 205/6/2 206/6/2 210/6/2
f 206/5/2 207/5/2 211/5/2
f 210/6/2 206/6/2 211/6/2
f 207/6/2 208/6/2 212/6/2
f 211/5/2 207/5/2 212/5/2
f 208/5/2 209/5/2 213/5/2
f 212/6/2 208/6/2 213/6/2
f 213/5/2 209/5/2 214/5/2
f 217/2/3 216/2/3 215/2/3
f 218/2/3 216/2/3 217/2/3
f 221/6/3 220/6/3 219/6/3
f 222/6/3 220/6/3 221/6/3
f 225/2/3 224/2/3 223/2/3
f 226/2/3 224/2/3 225/2/3
f 229/5/3 228/5/3 227/5/3
f 230/5/3 228/5/3 229/5/3
f 233/2/3 232/2/3 231/2/3
f 234/2/3 232/2/3 233/2/3
f 237/2/3 236/2/3 235/2/3
f 238/2/3 236/2/3 237/2/3
f 241/2/3 240/2/3 239/2/3
f 242/2/3 240/2/3 241/2/3
f 245/6/3 244/6/3 243/6/3
f 246/6/3 244/6/3 245/6/3
f 249/2/3 248/2/3 247/2/3
f 250/2/3 248/2/3 249/2/3
f 253/2/3 252/2/3 251/2/3
f 254/2/3 252/2/3 253/2/3
f 257/2/3 256/2/3 255/2/3
f 258/2/3 256/2/3 257/2/3
f 261/5/3 260/5/3 259/5/3
f 262/5/3 260/5/3 261/5/3
f 265/2/3 264/2/3 263/2/3
f 266/2/3 264/2/3 265/2/3
f 269/5/3 268/5/3 267/5/3
f 270/5/3 268/5/3 269/5/3
f 273/2/3 272/2/3 271/2/3
f 274/2/3 272/2/3 273/2/3
f 277/2/3 276/2/3 275/2/3
f 278/2/3 276/2/3 277/2/3
f 281/1/3 280/1/3 279/1/3
f 282/1/3 280/1/3 281/1/3
f 285/6/3 284/6/3 283/6/3
f 286/6/3 284/6/3 285/6/3
f 287/1/3 286/1/3 285/1/3
f 288/1/3 286/1/3 287/1/3
f 291/5/3 290/5/3 289/5/3
f 292/5/3 290/5/3 291/5/3
f 293/1/3 292/1/3 291/1/3
f 294/1/3 292/1/3 293/1/3
f 297/5/3 296/5/3 295/5/3
f 298/5/3 296/5/3 297/5/3
f 301/1/3 300/1/3 299/1/3
f 302/1/3 300/1/3 301/1/3
f 305/3/3 304/3/3 303/3/3
f 306/3/3 304/3/3 305/3/3
f 309/3/3 308/3/3 307/3/3
f 310/3/3 308/3/3 309/3/3
f 313/3/3 312/3/3 311/3/3
f 314/3/3 312/3/3 313/3/3
f 317/3/3 316/3/3 315/3/3
f 318/3/3 316/3/3 317/3/3
f 319/5/4 320/5/4 321/5/4
f 321/5/4 320/5/4 322/5/4
f 323/2/4 324/2/4 325/2/4
f 325/2/4 324/2/4 326/2/4
f 327/2/4 328/2/4 329/2/4
f 329/2/4 328/2/4 330/2/4
f 331/2/4 332/2/4 333/2/4
f 333/2/4 332/2/4 334/2/4
f 335/2/4 336/2/4 337/2/4
f 337/2/4 336/2/4 338/2/4
f 339/3/4 340/3/4 341/3/4
f 341/3/4 340/3/4 342/3/4
f 343/2/4 344/2/4 345/2/4
f 345/2/4 344/2/4 346/2/4
f 347/2/4 348/2/4 349/2/4
f 349/2/4 348/2/4 350/2/4
f 351/2/4 352/2/4 353/2/4
f 353/2/4 352/2/4 354/2/4
f 355/2/4 356/2/4 357/2/4
f 357/2/4 356/2/4 358/2/4
f 359/2/4 360/2/4 361/2/4
f 361/2/4 360/2/4 362/2/4
f 363/2/4 364/2/4 365/2/4
f 365/2/4 364/2/4 366/2/4
f 365/6/4 366/6/4 367/6/4
f 367/6/4 366/6/4 368/6/4
f 369/2/4 370/2/4 371/2/4
f 371/2/4 370/2/4 372/2/4
f 373/2/4 374/2/4 375/2/4
f 375/2/4 374/2/4 376/2/4
f 375/6/4 376/6/4 377/6/4
f 377/6/4 376/6/4 378/6/4
f 377/1/4 378/1/4 379/1/4
f 379/1/4 378/1/4 380/1/4
f 381/1/4 382/1/4 383/1/4
f 383/1/4 382/1/4 384/1/4
f 385/5/4 386/5/4 387/5/4
f 387/5/4 386/5/4 388/5/4
f 389/1/4 390/1/4 391/1/4
f 391/1/4 390/1/4 392/1/4
f 393/3/4 394/3/4 395/3/4
f 395/3/4 394/3/4 396/3/4
f 395/6/4 396/6/4 397/6/4
f 397/6/4 396/6/4 398/6/4
f 399/3/4 400/3/4 401/3/4
f 401/3/4 400/3/4 402/3/4
f 403/6/4 404/6/4 405/6/4
f 405/6/4 404/6/4 406/6/4
f 407/3/4 408/3/4 409/3/4
f 409/3/4 408/3/4 410/3/4
f 415/2/5 412/2/5 411/2/5
f 417/6/5 414/6/5 413/6/5
f 418/6/5 414/6/5 417/6/5
f 419/5/5 418/5/5 417/5/5
f 420/5/5 418/5/5 419/5/5
f 422/6/5 420/6/5 419/6/5
f 423/2/5 416/2/5 415/2/5
f 425/5/5 422/5/5 421/5/5
f 426/6/5 420/6/5 422/6/5
f 426/5/5 422/5/5 425/5/5
f 427/6/5 420/6/5 426/6/5
f 428/6/5 426/6/5 425/6/5
f 429/5/5 427/5/5 426/5/5
f 429/6/5 426/6/5 428/6/5
f 430/5/5 427/5/5 429/5/5
f 431/2/5 424/2/5 423/2/5
f 433/2/5 415/2/5 411/2/5
f 433/2/5 432/2/5 431/2/5
f 433/2/5 431/2/5 423/2/5
f 433/2/5 423/2/5 415/2/5
f 434/2/5 432/2/5 433/2/5
f 435/2/5 432/2/5 434/2/5
f 438/5/5 429/5/5 428/5/5
f 439/2/5 436/2/5 435/2/5
f 439/2/5 435/2/5 434/2/5
f 440/2/5 436/2/5 439/2/5
f 441/2/5 436/2/5 440/2/5
f 443/6/5 438/6/5 437/6/5
f 444/5/5 429/5/5 438/5/5
f 444/6/5 438/6/5 443/6/5
f 445/2/5 442/2/5 441/2/5
f 445/2/5 441/2/5 440/2/5
f 447/5/5 429/5/5 444/5/5
f 447/5/5 444/5/5 443/5/5
f 448/5/5 429/5/5 447/5/5
f 449/2/5 446/2/5 445/2/5
f 449/2/5 445/2/5 440/2/5
f 450/2/5 446/2/5 449/2/5
f 451/2/5 446/2/5 450/2/5
f 454/5/5 447/5/5 443/5/5
f 455/6/5 448/6/5 447/6/5
f 455/5/5 447/5/5 454/5/5
f 456/6/5 448/6/5 455/6/5
f 457/2/5 452/2/5 451/2/5
f 457/2/5 451/2/5 450/2/5
f 458/2/5 452/2/5 457/2/5
f 459/5/5 454/5/5 453/5/5
f 459/5/5 455/5/5 454/5/5
f 460/5/5 455/5/5 459/5/5
f 461/3/5 456/3/5 455/3/5
f 461/5/5 455/5/5 460/5/5
f 462/3/5 456/3/5 461/3/5
f 463/2/5 452/2/5 458/2/5
f 464/2/5 452/2/5 463/2/5
f 465/2/5 452/2/5 464/2/5
f 468/6/5 460/6/5 459/6/5
f 469/5/5 461/5/5 460/5/5
f 469/6/5 460/6/5 468/6/5
f 470/2/5 466/2/5 465/2/5
f 470/2/5 465/2/5 464/2/5
f 471/2/5 466/2/5 470/2/5
f 472/2/5 466/2/5 471/2/5
f 474/5/5 468/5/5 467/5/5
f 474/4/5 469/4/5 468/4/5
f 475/5/5 461/5/5 469/5/5
f 475/4/5 469/4/5 474/4/5
f 476/2/5 473/2/5 472/2/5
f 476/2/5 472/2/5 471/2/5
f 477/2/5 473/2/5 476/2/5
f 478/2/5 473/2/5 477/2/5
f 481/5/5 474/5/5 467/5/5
f 481/5/5 475/5/5 474/5/5
f 482/5/5 461/5/5 475/5/5
f 482/5/5 475/5/5 481/5/5
f 483/5/5 461/5/5 482/5/5
f 484/2/5 479/2/5 478/2/5
f 484/2/5 478/2/5 477/2/5
f 485/2/5 479/2/5 484/2/5
f 486/2/5 479/2/5 485/2/5
f 487/2/5 479/2/5 486/2/5
f 492/1/5 481/1/5 480/1/5
f 492/1/5 482/1/5 481/1/5
f 493/1/5 482/1/5 492/1/5
f 494/1/5 482/1/5 493/1/5
f 495/6/5 483/6/5 482/6/5
f 495/1/5 482/1/5 494/1/5
f 496/6/5 483/6/5 495/6/5
f 497/2/5 486/2/5 485/2/5
f 498/2/5 486/2/5 497/2/5
f 499/2/5 486/2/5 498/2/5
f 500/6/5 487/6/5 486/6/5
f 500/2/5 486/2/5 499/2/5
f 500/6/5 488/6/5 487/6/5
f 501/6/5 488/6/5 500/6/5
f 502/1/5 489/1/5 488/1/5
f 502/6/5 488/6/5 501/6/5
f 503/1/5 489/1/5 502/1/5
f 504/1/5 489/1/5 503/1/5
f 505/5/5 491/5/5 490/5/5
f 506/1/5 492/1/5 491/1/5
f 506/5/5 491/5/5 505/5/5
f 507/5/5 493/5/5 492/5/5
f 507/1/5 492/1/5 506/1/5
f 508/3/5 494/3/5 493/3/5
f 508/5/5 493/5/5 507/5/5
f 509/5/5 495/5/5 494/5/5
f 509/3/5 494/3/5 508/3/5
f 510/2/5 499/2/5 498/2/5
f 511/6/5 501/6/5 500/6/5
f 511/2/5 499/2/5 510/2/5
f 511/6/5 500/6/5 499/6/5
f 512/2/5 502/2/5 501/2/5
f 512/6/5 501/6/5 511/6/5
f 512/2/5 503/2/5 502/2/5
f 513/2/5 503/2/5 512/2/5
f 514/6/5 504/6/5 503/6/5
f 514/2/5 503/2/5 513/2/5
f 515/5/5 505/5/5 504/5/5
f 515/6/5 504/6/5 514/6/5
f 516/1/5 506/1/5 505/1/5
f 516/5/5 505/5/5 515/5/5
f 517/6/5 507/6/5 506/6/5
f 517/1/5 506/1/5 516/1/5
f 518/5/5 508/5/5 507/5/5
f 518/6/5 507/6/5 517/6/5
f 519/1/5 509/1/5 508/1/5
f 519/5/5 508/5/5 518/5/5
f 520/2/5 513/2/5 512/2/5
f 521/5/5 514/5/5 513/5/5
f 521/2/5 513/2/5 520/2/5
f 522/6/5 515/6/5 514/6/5
f 522/5/5 514/5/5 521/5/5
f 523/1/5 516/1/5 515/1/5
f 523/5/5 518/5/5 517/5/5
f 523/1/5 517/1/5 516/1/5
f 524/1/5 519/1/5 518/1/5
f 524/5/5 518/5/5 523/5/5
f 525/1/5 509/1/5 519/1/5
f 525/1/5 519/1/5 524/1/5
f 526/5/5 495/5/5 509/5/5
f 526/1/5 509/1/5 525/1/5
f 527/2/5 522/2/5 521/2/5
f 528/6/5 515/6/5 522/6/5
f 528/2/5 522/2/5 527/2/5
f 529/1/5 523/1/5 515/1/5
f 529/6/5 515/6/5 528/6/5
f 530/2/5 524/2/5 523/2/5
f 530/1/5 523/1/5 529/1/5
f 531/1/5 525/1/5 524/1/5
f 531/2/5 524/2/5 530/2/5
f 533/6/5 531/6/5 530/6/5
f 534/1/5 533/1/5 532/1/5
f 535/6/5 531/6/5 533/6/5
f 535/1/5 533/1/5 534/1/5
f 536/1/5 525/1/5 531/1/5
f 536/6/5 531/6/5 535/6/5
f 537/6/5 526/6/5 525/6/5
f 537/1/5 525/1/5 536/1/5
f 538/5/5 495/5/5 526/5/5
f 538/6/5 526/6/5 537/6/5
f 539/1/5 496/1/5 495/1/5
f 539/5/5 495/5/5 538/5/5
f 540/1/5 496/1/5 539/1/5
f 542/4/5 535/4/5 534/4/5
f 543/6/5 537/6/5 536/6/5
f 543/6/5 536/6/5 535/6/5
f 543/4/5 535/4/5 542/4/5
f 544/6/5 537/6/5 543/6/5
f 545/1/5 538/1/5 537/1/5
f 545/5/5 539/5/5 538/5/5
f 546/5/5 539/5/5 545/5/5
f 547/4/5 544/4/5 543/4/5
f 547/6/5 543/6/5 542/6/5
f 548/6/5 537/6/5 544/6/5
f 548/4/5 544/4/5 547/4/5
f 549/1/5 545/1/5 537/1/5
f 549/6/5 537/6/5 548/6/5
f 550/1/5 545/1/5 549/1/5
f 552/3/5 542/3/5 541/3/5
f 553/6/5 547/6/5 542/6/5
f 553/3/5 542/3/5 552/3/5
f 554/3/5 548/3/5 547/3/5
f 554/6/5 547/6/5 553/6/5
f 555/6/5 549/6/5 548/6/5
f 555/3/5 548/3/5 554/3/5
f 556/6/5 549/6/5 555/6/5
f 557/3/5 552/3/5 551/3/5
f 557/4/5 553/4/5 552/4/5
f 558/6/5 554/6/5 553/6/5
f 558/4/5 553/4/5 557/4/5
f 559/6/5 554/6/5 558/6/5
f 561/3/5 557/3/5 551/3/5
f 562/6/5 558/6/5 557/6/5
f 562/3/5 559/3/5 558/3/5
f 563/3/5 559/3/5 562/3/5
f 565/3/5 561/3/5 560/3/5
f 566/3/5 557/3/5 561/3/5
f 566/6/5 562/6/5 557/6/5
f 566/3/5 561/3/5 565/3/5
f 567/6/5 562/6/5 566/6/5
f 568/3/5 565/3/5 564/3/5
f 568/3/5 566/3/5 565/3/5
f 569/3/5 566/3/5 568/3/5
f 570/2/6 571/2/6 574/2/6
f 572/6/6 573/6/6 576/6/6
f 576/6/6 573/6/6 577/6/6
f 576/5/6 577/5/6 578/5/6
f 578/5/6 577/5/6 579/5/6
f 578/6/6 579/6/6 581/6/6
f 574/2/6 575/2/6 582/2/6
f 580/5/6 581/5/6 584/5/6
f 581/6/6 579/6/6 585/6/6
f 584/5/6 581/5/6 585/5/6
f 585/6/6 579/6/6 586/6/6
f 584/6/6 585/6/6 587/6/6
f 585/5/6 586/5/6 588/5/6
f 587/6/6 585/6/6 588/6/6
f 588/5/6 586/5/6 589/5/6
f 582/2/6 583/2/6 590/2/6
f 570/2/6 574/2/6 592/2/6
f 590/2/6 591/2/6 592/2/6
f 582/2/6 590/2/6 592/2/6
f 574/2/6 582/2/6 592/2/6
f 592/2/6 591/2/6 593/2/6
f 593/2/6 591/2/6 594/2/6
f 587/5/6 588/5/6 597/5/6
f 594/2/6 595/2/6 598/2/6
f 593/2/6 594/2/6 598/2/6
f 598/2/6 595/2/6 599/2/6
f 599/2/6 595/2/6 600/2/6
f 596/6/6 597/6/6 602/6/6
f 597/5/6 588/5/6 603/5/6
f 602/6/6 597/6/6 603/6/6
f 600/2/6 601/2/6 604/2/6
f 599/2/6 600/2/6 604/2/6
f 603/5/6 588/5/6 606/5/6
f 602/5/6 603/5/6 606/5/6
f 606/5/6 588/5/6 607/5/6
f 604/2/6 605/2/6 608/2/6
f 599/2/6 604/2/6 608/2/6
f 608/2/6 605/2/6 609/2/6
f 609/2/6 605/2/6 610/2/6
f 602/5/6 606/5/6 613/5/6
f 606/6/6 607/6/6 614/6/6
f 613/5/6 606/5/6 614/5/6
f 614/6/6 607/6/6 615/6/6
f 610/2/6 611/2/6 616/2/6
f 609/2/6 610/2/6 616/2/6
f 616/2/6 611/2/6 617/2/6
f 612/5/6 613/5/6 618/5/6
f 613/5/6 614/5/6 618/5/6
f 618/5/6 614/5/6 619/5/6
f 614/3/6 615/3/6 620/3/6
f 619/5/6 614/5/6 620/5/6
f 620/3/6 615/3/6 621/3/6
f 617/2/6 611/2/6 622/2/6
f 622/2/6 611/2/6 623/2/6
f 623/2/6 611/2/6 624/2/6
f 618/6/6 619/6/6 627/6/6
f 619/5/6 620/5/6 628/5/6
f 627/6/6 619/6/6 628/6/6
f 624/2/6 625/2/6 629/2/6
f 623/2/6 624/2/6 629/2/6
f 629/2/6 625/2/6 630/2/6
f 630/2/6 625/2/6 631/2/6
f 626/5/6 627/5/6 633/5/6
f 627/4/6 628/4/6 633/4/6
f 628/5/6 620/5/6 634/5/6
f 633/4/6 628/4/6 634/4/6
f 631/2/6 632/2/6 635/2/6
f 630/2/6 631/2/6 635/2/6
f 635/2/6 632/2/6 636/2/6
f 636/2/6 632/2/6 637/2/6
f 626/5/6 633/5/6 640/5/6
f 633/5/6 634/5/6 640/5/6
f 634/5/6 620/5/6 641/5/6
f 640/5/6 634/5/6 641/5/6
f 641/5/6 620/5/6 642/5/6
f 637/2/6 638/2/6 643/2/6
f 636/2/6 637/2/6 643/2/6
f 643/2/6 638/2/6 644/2/6
f 644/2/6 638/2/6 645/2/6
f 645/2/6 638/2/6 646/2/6
f 639/1/6 640/1/6 651/1/6
f 640/1/6 641/1/6 651/1/6
f 651/1/6 641/1/6 652/1/6
f 652/1/6 641/1/6 653/1/6
f 641/6/6 642/6/6 654/6/6
f 653/1/6 641/1/6 654/1/6
f 654/6/6 642/6/6 655/6/6
f 644/2/6 645/2/6 656/2/6
f 656/2/6 645/2/6 657/2/6
f 657/2/6 645/2/6 658/2/6
f 645/6/6 646/6/6 659/6/6
f 658/2/6 645/2/6 659/2/6
f 646/6/6 647/6/6 659/6/6
f 659/6/6 647/6/6 660/6/6
f 647/1/6 648/1/6 661/1/6
f 660/6/6 647/6/6 661/6/6
f 661/1/6 648/1/6 662/1/6
f 662/1/6 648/1/6 663/1/6
f 649/5/6 650/5/6 664/5/6
f 650/1/6 651/1/6 665/1/6
f 664/5/6 650/5/6 665/5/6
f 651/5/6 652/5/6 666/5/6
f 665/1/6 651/1/6 666/1/6
f 652/3/6 653/3/6 667/3/6
f 666/5/6 652/5/6 667/5/6
f 653/5/6 654/5/6 668/5/6
f 667/3/6 653/3/6 668/3/6
f 657/2/6 658/2/6 669/2/6
f 659/6/6 660/6/6 670/6/6
f 669/2/6 658/2/6 670/2/6
f 658/6/6 659/6/6 670/6/6
f 660/2/6 661/2/6 671/2/6
f 670/6/6 660/6/6 671/6/6
f 661/2/6 662/2/6 671/2/6
f 671/2/6 662/2/6 672/2/6
f 662/6/6 663/6/6 673/6/6
f 672/2/6 662/2/6 673/2/6
f 663/5/6 664/5/6 674/5/6
f 673/6/6 663/6/6 674/6/6
f 664/1/6 665/1/6 675/1/6
f 674/5/6 664/5/6 675/5/6
f 665/6/6 666/6/6 676/6/6
f 675/1/6 665/1/6 676/1/6
f 666/5/6 667/5/6 677/5/6
f 676/6/6 666/6/6 677/6/6
f 667/1/6 668/1/6 678/1/6
f 677/5/6 667/5/6 678/5/6
f 671/2/6 672/2/6 679/2/6
f 672/5/6 673/5/6 680/5/6
f 679/2/6 672/2/6 680/2/6
f 673/6/6 674/6/6 681/6/6
f 680/5/6 673/5/6 681/5/6
f 674/1/6 675/1/6 682/1/6
f 676/5/6 677/5/6 682/5/6
f 675/1/6 676/1/6 682/1/6
f 677/1/6 678/1/6 683/1/6
f 682/5/6 677/5/6 683/5/6
f 678/1/6 668/1/6 684/1/6
f 683/1/6 678/1/6 684/1/6
f 668/5/6 654/5/6 685/5/6
f 684/1/6 668/1/6 685/1/6
f 680/2/6 681/2/6 686/2/6
f 681/6/6 674/6/6 687/6/6
f 686/2/6 681/2/6 687/2/6
f 674/1/6 682/1/6 688/1/6
f 687/6/6 674/6/6 688/6/6
f 682/2/6 683/2/6 689/2/6
f 688/1/6 682/1/6 689/1/6
f 683/1/6 684/1/6 690/1/6
f 689/2/6 683/2/6 690/2/6
f 689/6/6 690/6/6 692/6/6
f 691/1/6 692/1/6 693/1/6
f 692/6/6 690/6/6 694/6/6
f 693/1/6 692/1/6 694/1/6
f 690/1/6 684/1/6 695/1/6
f 694/6/6 690/6/6 695/6/6
f 684/6/6 685/6/6 696/6/6
f 695/1/6 684/1/6 696/1/6
f 685/5/6 654/5/6 697/5/6
f 696/6/6 685/6/6 697/6/6
f 654/1/6 655/1/6 698/1/6
f 697/5/6 654/5/6 698/5/6
f 698/1/6 655/1/6 699/1/6
f 693/4/6 694/4/6 701/4/6
f 695/6/6 696/6/6 702/6/6
f 694/6/6 695/6/6 702/6/6
f 701/4/6 694/4/6 702/4/6
f 702/6/6 696/6/6 703/6/6
f 696/1/6 697/1/6 704/1/6
f 697/5/6 698/5/6 704/5/6
f 704/5/6 698/5/6 705/5/6
f 702/4/6 703/4/6 706/4/6
f 701/6/6 702/6/6 706/6/6
f 703/6/6 696/6/6 707/6/6
f 706/4/6 703/4/6 707/4/6
f 696/1/6 704/1/6 708/1/6
f 707/6/6 696/6/6 708/6/6
f 708/1/6 704/1/6 709/1/6
f 700/3/6 701/3/6 711/3/6
f 701/6/6 706/6/6 712/6/6
f 711/3/6 701/3/6 712/3/6
f 706/3/6 707/3/6 713/3/6
f 712/6/6 706/6/6 713/6/6
f 707/6/6 708/6/6 714/6/6
f 713/3/6 707/3/6 714/3/6
f 714/6/6 708/6/6 715/6/6
f 710/3/6 711/3/6 716/3/6
f 711/4/6 712/4/6 716/4/6
f 712/6/6 713/6/6 717/6/6
f 716/4/6 712/4/6 717/4/6
f 717/6/6 713/6/6 718/6/6
f 710/3/6 716/3/6 720/3/6
f 716/6/6 717/6/6 721/6/6
f 717/3/6 718/3/6 721/3/6
f 721/3/6 718/3/6 722/3/6
f 719/3/6 720/3/6 724/3/6
f 720/3/6 716/3/6 725/3/6
f 716/6/6 721/6/6 725/6/6
f 724/3/6 720/3/6 725/3/6
f 725/6/6 721/6/6 726/6/6
f 723/3/6 724/3/6 727/3/6
f 724/3/6 725/3/6 727/3/6
f 727/3/6 725/3/6 728/3/6
