# MagicaVoxel @ Ephtracy

# group
g spear-1

# material
mtllib spear-1.mtl
usemtl palette

# normals
vn -1 0 0
vn 1 0 0
vn 0 0 1
vn 0 0 -1
vn 0 -1 0
vn 0 1 0

# texcoords
vt 0.970703 0.5
vt 0.974609 0.5
vt 0.978516 0.5
vt 0.982422 0.5
vt 0.986328 0.5

# verts
v -31.5 2 0.5
v -31.5 2 -0.5
v -31.5 3 0.5
v -31.5 3 -0.5
v 17.5 1 0.5
v 17.5 1 -0.5
v 17.5 2 1.5
v 17.5 2 0.5
v 17.5 2 -0.5
v 17.5 2 -1.5
v 17.5 3 1.5
v 17.5 3 0.5
v 17.5 3 -0.5
v 17.5 3 -1.5
v 17.5 4 0.5
v 17.5 4 -0.5
v 21.5 0 0.5
v 21.5 0 -0.5
v 21.5 1 0.5
v 21.5 1 -0.5
v 21.5 2 2.5
v 21.5 2 1.5
v 21.5 2 -1.5
v 21.5 2 -2.5
v 21.5 3 2.5
v 21.5 3 1.5
v 21.5 3 -1.5
v 21.5 3 -2.5
v 21.5 4 0.5
v 21.5 4 -0.5
v 21.5 5 0.5
v 21.5 5 -0.5
v 23.5 0 0.5
v 23.5 0 -0.5
v 23.5 1 0.5
v 23.5 1 -0.5
v 23.5 2 2.5
v 23.5 2 1.5
v 23.5 2 -1.5
v 23.5 2 -2.5
v 23.5 3 2.5
v 23.5 3 1.5
v 23.5 3 -1.5
v 23.5 3 -2.5
v 23.5 4 0.5
v 23.5 4 -0.5
v 23.5 5 0.5
v 23.5 5 -0.5
v 27.5 2 1.5
v 27.5 2 0.5
v 27.5 2 -0.5
v 27.5 2 -1.5
v 27.5 3 1.5
v 27.5 3 0.5
v 27.5 3 -0.5
v 27.5 3 -1.5
v 28.5 1 0.5
v 28.5 1 -0.5
v 28.5 2 0.5
v 28.5 2 -0.5
v 28.5 3 0.5
v 28.5 3 -0.5
v 28.5 4 0.5
v 28.5 4 -0.5
v 31.5 2 0.5
v 31.5 2 -0.5
v 31.5 3 0.5
v 31.5 3 -0.5
v 21.5 2 2.5
v 21.5 3 2.5
v 22.5 2 2.5
v 22.5 3 2.5
v 23.5 2 2.5
v 23.5 3 2.5
v 17.5 2 1.5
v 17.5 3 1.5
v 18.5 2 1.5
v 18.5 3 1.5
v 19.5 2 1.5
v 19.5 3 1.5
v 21.5 2 1.5
v 21.5 3 1.5
v 23.5 2 1.5
v 23.5 3 1.5
v 24.5 2 1.5
v 24.5 3 1.5
v 25.5 2 1.5
v 25.5 3 1.5
v 26.5 2 1.5
v 26.5 3 1.5
v 27.5 2 1.5
v 27.5 3 1.5
v -31.5 2 0.5
v -31.5 3 0.5
v -29.5 2 0.5
v -29.5 3 0.5
v -28.5 2 0.5
v -28.5 3 0.5
v -26.5 2 0.5
v -26.5 3 0.5
v -25.5 2 0.5
v -25.5 3 0.5
v -23.5 2 0.5
v -23.5 3 0.5
v -22.5 2 0.5
v -22.5 3 0.5
v -20.5 2 0.5
v -20.5 3 0.5
v -19.5 2 0.5
v -19.5 3 0.5
v -17.5 2 0.5
v -17.5 3 0.5
v -16.5 2 0.5
v -16.5 3 0.5
v -14.5 2 0.5
v -14.5 3 0.5
v -13.5 2 0.5
v -13.5 3 0.5
v -11.5 2 0.5
v -11.5 3 0.5
v -10.5 2 0.5
v -10.5 3 0.5
v -8.5 2 0.5
v -8.5 3 0.5
v -7.5 2 0.5
v -7.5 3 0.5
v -5.5 2 0.5
v -5.5 3 0.5
v -4.5 2 0.5
v -4.5 3 0.5
v 4.5 2 0.5
v 4.5 3 0.5
v 6.5 2 0.5
v 6.5 3 0.5
v 7.5 2 0.5
v 7.5 3 0.5
v 8.5 2 0.5
v 8.5 3 0.5
v 10.5 2 0.5
v 10.5 3 0.5
v 11.5 2 0.5
v 11.5 3 0.5
v 12.5 2 0.5
v 12.5 3 0.5
v 14.5 2 0.5
v 14.5 3 0.5
v 17.5 1 0.5
v 17.5 2 0.5
v 17.5 3 0.5
v 17.5 4 0.5
v 18.5 1 0.5
v 18.5 2 0.5
v 18.5 3 0.5
v 19.5 1 0.5
v 19.5 2 0.5
v 19.5 3 0.5
v 20.5 3 0.5
v 20.5 4 0.5
v 21.5 0 0.5
v 21.5 1 0.5
v 21.5 2 0.5
v 21.5 3 0.5
v 21.5 4 0.5
v 21.5 5 0.5
v 22.5 0 0.5
v 22.5 2 0.5
v 22.5 4 0.5
v 22.5 5 0.5
v 23.5 0 0.5
v 23.5 1 0.5
v 23.5 2 0.5
v 23.5 3 0.5
v 23.5 4 0.5
v 23.5 5 0.5
v 24.5 2 0.5
v 24.5 3 0.5
v 24.5 4 0.5
v 25.5 1 0.5
v 25.5 2 0.5
v 25.5 3 0.5
v 26.5 1 0.5
v 26.5 2 0.5
v 26.5 3 0.5
v 27.5 2 0.5
v 27.5 3 0.5
v 28.5 1 0.5
v 28.5 2 0.5
v 28.5 3 0.5
v 28.5 4 0.5
v 31.5 2 0.5
v 31.5 3 0.5
v -31.5 2 -0.5
v -31.5 3 -0.5
v -29.5 2 -0.5
v -29.5 3 -0.5
v -28.5 2 -0.5
v -28.5 3 -0.5
v -26.5 2 -0.5
v -26.5 3 -0.5
v -25.5 2 -0.5
v -25.5 3 -0.5
v -23.5 2 -0.5
v -23.5 3 -0.5
v -22.5 2 -0.5
v -22.5 3 -0.5
v -20.5 2 -0.5
v -20.5 3 -0.5
v -19.5 2 -0.5
v -19.5 3 -0.5
v -17.5 2 -0.5
v -17.5 3 -0.5
v -16.5 2 -0.5
v -16.5 3 -0.5
v -14.5 2 -0.5
v -14.5 3 -0.5
v -13.5 2 -0.5
v -13.5 3 -0.5
v -11.5 2 -0.5
v -11.5 3 -0.5
v -10.5 2 -0.5
v -10.5 3 -0.5
v -8.5 2 -0.5
v -8.5 3 -0.5
v -7.5 2 -0.5
v -7.5 3 -0.5
v -5.5 2 -0.5
v -5.5 3 -0.5
v -4.5 2 -0.5
v -4.5 3 -0.5
v 4.5 2 -0.5
v 4.5 3 -0.5
v 6.5 2 -0.5
v 6.5 3 -0.5
v 7.5 2 -0.5
v 7.5 3 -0.5
v 8.5 2 -0.5
v 8.5 3 -0.5
v 10.5 2 -0.5
v 10.5 3 -0.5
v 11.5 2 -0.5
v 11.5 3 -0.5
v 12.5 2 -0.5
v 12.5 3 -0.5
v 14.5 2 -0.5
v 14.5 3 -0.5
v 17.5 1 -0.5
v 17.5 2 -0.5
v 17.5 3 -0.5
v 17.5 4 -0.5
v 18.5 1 -0.5
v 18.5 2 -0.5
v 19.5 1 -0.5
v 19.5 2 -0.5
v 20.5 3 -0.5
v 20.5 4 -0.5
v 21.5 0 -0.5
v 21.5 1 -0.5
v 21.5 2 -0.5
v 21.5 3 -0.5
v 21.5 4 -0.5
v 21.5 5 -0.5
v 22.5 0 -0.5
v 22.5 2 -0.5
v 22.5 4 -0.5
v 22.5 5 -0.5
v 23.5 0 -0.5
v 23.5 1 -0.5
v 23.5 2 -0.5
v 23.5 3 -0.5
v 23.5 4 -0.5
v 23.5 5 -0.5
v 24.5 2 -0.5
v 24.5 3 -0.5
v 24.5 4 -0.5
v 25.5 1 -0.5
v 25.5 2 -0.5
v 26.5 1 -0.5
v 26.5 2 -0.5
v 27.5 2 -0.5
v 27.5 3 -0.5
v 28.5 1 -0.5
v 28.5 2 -0.5
v 28.5 3 -0.5
v 28.5 4 -0.5
v 31.5 2 -0.5
v 31.5 3 -0.5
v 17.5 2 -1.5
v 17.5 3 -1.5
v 21.5 2 -1.5
v 21.5 3 -1.5
v 23.5 2 -1.5
v 23.5 3 -1.5
v 24.5 2 -1.5
v 24.5 3 -1.5
v 27.5 2 -1.5
v 27.5 3 -1.5
v 21.5 2 -2.5
v 21.5 3 -2.5
v 22.5 2 -2.5
v 22.5 3 -2.5
v 23.5 2 -2.5
v 23.5 3 -2.5
v 21.5 0 0.5
v 22.5 0 0.5
v 23.5 0 0.5
v 21.5 0 -0.5
v 22.5 0 -0.5
v 23.5 0 -0.5
v 17.5 1 0.5
v 18.5 1 0.5
v 19.5 1 0.5
v 21.5 1 0.5
v 23.5 1 0.5
v 25.5 1 0.5
v 26.5 1 0.5
v 28.5 1 0.5
v 17.5 1 -0.5
v 18.5 1 -0.5
v 19.5 1 -0.5
v 21.5 1 -0.5
v 23.5 1 -0.5
v 25.5 1 -0.5
v 26.5 1 -0.5
v 28.5 1 -0.5
v 21.5 2 2.5
v 22.5 2 2.5
v 23.5 2 2.5
v 17.5 2 1.5
v 18.5 2 1.5
v 19.5 2 1.5
v 21.5 2 1.5
v 22.5 2 1.5
v 23.5 2 1.5
v 24.5 2 1.5
v 25.5 2 1.5
v 26.5 2 1.5
v 27.5 2 1.5
v -31.5 2 0.5
v -29.5 2 0.5
v -28.5 2 0.5
v -26.5 2 0.5
v -25.5 2 0.5
v -23.5 2 0.5
v -22.5 2 0.5
v -20.5 2 0.5
v -19.5 2 0.5
v -17.5 2 0.5
v -16.5 2 0.5
v -14.5 2 0.5
v -13.5 2 0.5
v -11.5 2 0.5
v -10.5 2 0.5
v -8.5 2 0.5
v -7.5 2 0.5
v -5.5 2 0.5
v -4.5 2 0.5
v 4.5 2 0.5
v 6.5 2 0.5
v 7.5 2 0.5
v 8.5 2 0.5
v 10.5 2 0.5
v 11.5 2 0.5
v 12.5 2 0.5
v 14.5 2 0.5
v 17.5 2 0.5
v 18.5 2 0.5
v 19.5 2 0.5
v 21.5 2 0.5
v 22.5 2 0.5
v 23.5 2 0.5
v 24.5 2 0.5
v 25.5 2 0.5
v 26.5 2 0.5
v 27.5 2 0.5
v 28.5 2 0.5
v 31.5 2 0.5
v -31.5 2 -0.5
v -29.5 2 -0.5
v -28.5 2 -0.5
v -26.5 2 -0.5
v -25.5 2 -0.5
v -23.5 2 -0.5
v -22.5 2 -0.5
v -20.5 2 -0.5
v -19.5 2 -0.5
v -17.5 2 -0.5
v -16.5 2 -0.5
v -14.5 2 -0.5
v -13.5 2 -0.5
v -11.5 2 -0.5
v -10.5 2 -0.5
v -8.5 2 -0.5
v -7.5 2 -0.5
v -5.5 2 -0.5
v -4.5 2 -0.5
v 4.5 2 -0.5
v 6.5 2 -0.5
v 7.5 2 -0.5
v 8.5 2 -0.5
v 10.5 2 -0.5
v 11.5 2 -0.5
v 12.5 2 -0.5
v 14.5 2 -0.5
v 17.5 2 -0.5
v 18.5 2 -0.5
v 19.5 2 -0.5
v 21.5 2 -0.5
v 22.5 2 -0.5
v 23.5 2 -0.5
v 24.5 2 -0.5
v 25.5 2 -0.5
v 26.5 2 -0.5
v 27.5 2 -0.5
v 28.5 2 -0.5
v 31.5 2 -0.5
v 17.5 2 -1.5
v 21.5 2 -1.5
v 22.5 2 -1.5
v 23.5 2 -1.5
v 24.5 2 -1.5
v 27.5 2 -1.5
v 21.5 2 -2.5
v 22.5 2 -2.5
v 23.5 2 -2.5
v 21.5 3 2.5
v 22.5 3 2.5
v 23.5 3 2.5
v 17.5 3 1.5
v 18.5 3 1.5
v 19.5 3 1.5
v 21.5 3 1.5
v 22.5 3 1.5
v 23.5 3 1.5
v 24.5 3 1.5
v 25.5 3 1.5
v 26.5 3 1.5
v 27.5 3 1.5
v -31.5 3 0.5
v -29.5 3 0.5
v -28.5 3 0.5
v -26.5 3 0.5
v -25.5 3 0.5
v -23.5 3 0.5
v -22.5 3 0.5
v -20.5 3 0.5
v -19.5 3 0.5
v -17.5 3 0.5
v -16.5 3 0.5
v -14.5 3 0.5
v -13.5 3 0.5
v -11.5 3 0.5
v -10.5 3 0.5
v -8.5 3 0.5
v -7.5 3 0.5
v -5.5 3 0.5
v -4.5 3 0.5
v 4.5 3 0.5
v 6.5 3 0.5
v 7.5 3 0.5
v 8.5 3 0.5
v 10.5 3 0.5
v 11.5 3 0.5
v 12.5 3 0.5
v 14.5 3 0.5
v 17.5 3 0.5
v 18.5 3 0.5
v 19.5 3 0.5
v 20.5 3 0.5
v 21.5 3 0.5
v 23.5 3 0.5
v 24.5 3 0.5
v 25.5 3 0.5
v 26.5 3 0.5
v 27.5 3 0.5
v 28.5 3 0.5
v 31.5 3 0.5
v -31.5 3 -0.5
v -29.5 3 -0.5
v -28.5 3 -0.5
v -26.5 3 -0.5
v -25.5 3 -0.5
v -23.5 3 -0.5
v -22.5 3 -0.5
v -20.5 3 -0.5
v -19.5 3 -0.5
v -17.5 3 -0.5
v -16.5 3 -0.5
v -14.5 3 -0.5
v -13.5 3 -0.5
v -11.5 3 -0.5
v -10.5 3 -0.5
v -8.5 3 -0.5
v -7.5 3 -0.5
v -5.5 3 -0.5
v -4.5 3 -0.5
v 4.5 3 -0.5
v 6.5 3 -0.5
v 7.5 3 -0.5
v 8.5 3 -0.5
v 10.5 3 -0.5
v 11.5 3 -0.5
v 12.5 3 -0.5
v 14.5 3 -0.5
v 17.5 3 -0.5
v 20.5 3 -0.5
v 21.5 3 -0.5
v 23.5 3 -0.5
v 24.5 3 -0.5
v 27.5 3 -0.5
v 28.5 3 -0.5
v 31.5 3 -0.5
v 17.5 3 -1.5
v 21.5 3 -1.5
v 22.5 3 -1.5
v 23.5 3 -1.5
v 24.5 3 -1.5
v 27.5 3 -1.5
v 21.5 3 -2.5
v 22.5 3 -2.5
v 23.5 3 -2.5
v 17.5 4 0.5
v 20.5 4 0.5
v 21.5 4 0.5
v 23.5 4 0.5
v 24.5 4 0.5
v 28.5 4 0.5
v 17.5 4 -0.5
v 20.5 4 -0.5
v 21.5 4 -0.5
v 23.5 4 -0.5
v 24.5 4 -0.5
v 28.5 4 -0.5
v 21.5 5 0.5
v 22.5 5 0.5
v 23.5 5 0.5
v 21.5 5 -0.5
v 22.5 5 -0.5
v 23.5 5 -0.5

# faces
f 3/1/1 2/1/1 1/1/1
f 4/1/1 2/1/1 3/1/1
f 8/2/1 6/2/1 5/2/1
f 9/2/1 6/2/1 8/2/1
f 11/5/1 8/5/1 7/5/1
f 12/5/1 8/5/1 11/5/1
f 13/5/1 10/5/1 9/5/1
f 14/5/1 10/5/1 13/5/1
f 15/5/1 13/5/1 12/5/1
f 16/5/1 13/5/1 15/5/1
f 19/4/1 18/4/1 17/4/1
f 20/4/1 18/4/1 19/4/1
f 25/5/1 22/5/1 21/5/1
f 26/5/1 22/5/1 25/5/1
f 27/4/1 24/4/1 23/4/1
f 28/4/1 24/4/1 27/4/1
f 31/2/1 30/2/1 29/2/1
f 32/2/1 30/2/1 31/2/1
f 33/5/2 34/5/2 35/5/2
f 35/5/2 34/5/2 36/5/2
f 37/2/2 38/2/2 41/2/2
f 41/2/2 38/2/2 42/2/2
f 39/2/2 40/2/2 43/2/2
f 43/2/2 40/2/2 44/2/2
f 45/4/2 46/4/2 47/4/2
f 47/4/2 46/4/2 48/4/2
f 49/5/2 50/5/2 53/5/2
f 53/5/2 50/5/2 54/5/2
f 51/4/2 52/4/2 55/4/2
f 55/4/2 52/4/2 56/4/2
f 57/5/2 58/5/2 59/5/2
f 59/5/2 58/5/2 60/5/2
f 61/5/2 62/5/2 63/5/2
f 63/5/2 62/5/2 64/5/2
f 65/5/2 66/5/2 67/5/2
f 67/5/2 66/5/2 68/5/2
f 71/5/3 70/5/3 69/5/3
f 72/5/3 70/5/3 71/5/3
f 73/2/3 72/2/3 71/2/3
f 74/2/3 72/2/3 73/2/3
f 77/5/3 76/5/3 75/5/3
f 78/5/3 76/5/3 77/5/3
f 79/4/3 78/4/3 77/4/3
f 80/4/3 78/4/3 79/4/3
f 81/5/3 80/5/3 79/5/3
f 82/5/3 80/5/3 81/5/3
f 85/4/3 84/4/3 83/4/3
f 86/4/3 84/4/3 85/4/3
f 87/2/3 86/2/3 85/2/3
f 88/2/3 86/2/3 87/2/3
f 89/4/3 88/4/3 87/4/3
f 90/4/3 88/4/3 89/4/3
f 91/5/3 90/5/3 89/5/3
f 92/5/3 90/5/3 91/5/3
f 95/1/3 94/1/3 93/1/3
f 96/1/3 94/1/3 95/1/3
f 97/3/3 96/3/3 95/3/3
f 98/3/3 96/3/3 97/3/3
f 99/1/3 98/1/3 97/1/3
f 100/1/3 98/1/3 99/1/3
f 101/3/3 100/3/3 99/3/3
f 102/3/3 100/3/3 101/3/3
f 103/1/3 102/1/3 101/1/3
f 104/1/3 102/1/3 103/1/3
f 105/3/3 104/3/3 103/3/3
f 106/3/3 104/3/3 105/3/3
f 107/1/3 106/1/3 105/1/3
f 108/1/3 106/1/3 107/1/3
f 109/3/3 108/3/3 107/3/3
f 110/3/3 108/3/3 109/3/3
f 111/1/3 110/1/3 109/1/3
f 112/1/3 110/1/3 111/1/3
f 113/3/3 112/3/3 111/3/3
f 114/3/3 112/3/3 113/3/3
f 115/1/3 114/1/3 113/1/3
f 116/1/3 114/1/3 115/1/3
f 117/3/3 116/3/3 115/3/3
f 118/3/3 116/3/3 117/3/3
f 119/1/3 118/1/3 117/1/3
f 120/1/3 118/1/3 119/1/3
f 121/3/3 120/3/3 119/3/3
f 122/3/3 120/3/3 121/3/3
f 123/1/3 122/1/3 121/1/3
f 124/1/3 122/1/3 123/1/3
f 125/3/3 124/3/3 123/3/3
f 126/3/3 124/3/3 125/3/3
f 127/1/3 126/1/3 125/1/3
f 128/1/3 126/1/3 127/1/3
f 129/3/3 128/3/3 127/3/3
f 130/3/3 128/3/3 129/3/3
f 131/1/3 130/1/3 129/1/3
f 132/1/3 130/1/3 131/1/3
f 133/4/3 132/4/3 131/4/3
f 134/4/3 132/4/3 133/4/3
f 135/1/3 134/1/3 133/1/3
f 136/1/3 134/1/3 135/1/3
f 137/5/3 136/5/3 135/5/3
f 138/5/3 136/5/3 137/5/3
f 139/4/3 138/4/3 137/4/3
f 140/4/3 138/4/3 139/4/3
f 141/1/3 140/1/3 139/1/3
f 142/1/3 140/1/3 141/1/3
f 143/5/3 142/5/3 141/5/3
f 144/5/3 142/5/3 143/5/3
f 145/4/3 144/4/3 143/4/3
f 146/4/3 144/4/3 145/4/3
f 148/5/3 146/5/3 145/5/3
f 149/5/3 146/5/3 148/5/3
f 151/2/3 148/2/3 147/2/3
f 152/2/3 148/2/3 151/2/3
f 153/5/3 150/5/3 149/5/3
f 154/4/3 152/4/3 151/4/3
f 155/4/3 152/4/3 154/4/3
f 156/5/3 150/5/3 153/5/3
f 157/5/3 150/5/3 156/5/3
f 158/5/3 150/5/3 157/5/3
f 160/5/3 155/5/3 154/5/3
f 161/5/3 155/5/3 160/5/3
f 162/4/3 158/4/3 157/4/3
f 163/4/3 158/4/3 162/4/3
f 165/4/3 161/4/3 160/4/3
f 165/4/3 160/4/3 159/4/3
f 166/4/3 161/4/3 165/4/3
f 167/4/3 163/4/3 162/4/3
f 167/2/3 164/2/3 163/2/3
f 168/2/3 164/2/3 167/2/3
f 169/5/3 166/5/3 165/5/3
f 170/5/3 166/5/3 169/5/3
f 171/5/3 166/5/3 170/5/3
f 172/4/3 167/4/3 162/4/3
f 172/4/3 168/4/3 167/4/3
f 173/4/3 168/4/3 172/4/3
f 174/4/3 168/4/3 173/4/3
f 175/5/3 171/5/3 170/5/3
f 176/4/3 173/4/3 172/4/3
f 177/4/3 173/4/3 176/4/3
f 178/5/3 175/5/3 170/5/3
f 179/5/3 175/5/3 178/5/3
f 180/5/3 177/5/3 176/5/3
f 181/4/3 179/4/3 178/4/3
f 182/4/3 179/4/3 181/4/3
f 183/5/3 177/5/3 180/5/3
f 184/5/3 182/5/3 181/5/3
f 185/5/3 177/5/3 183/5/3
f 186/5/3 184/5/3 181/5/3
f 187/4/3 185/4/3 184/4/3
f 187/5/3 184/5/3 186/5/3
f 188/5/3 177/5/3 185/5/3
f 188/4/3 185/4/3 187/4/3
f 189/5/3 177/5/3 188/5/3
f 190/5/3 188/5/3 187/5/3
f 191/5/3 188/5/3 190/5/3
f 192/1/4 193/1/4 194/1/4
f 194/1/4 193/1/4 195/1/4
f 194/3/4 195/3/4 196/3/4
f 196/3/4 195/3/4 197/3/4
f 196/1/4 197/1/4 198/1/4
f 198/1/4 197/1/4 199/1/4
f 198/3/4 199/3/4 200/3/4
f 200/3/4 199/3/4 201/3/4
f 200/1/4 201/1/4 202/1/4
f 202/1/4 201/1/4 203/1/4
f 202/3/4 203/3/4 204/3/4
f 204/3/4 203/3/4 205/3/4
f 204/1/4 205/1/4 206/1/4
f 206/1/4 205/1/4 207/1/4
f 206/3/4 207/3/4 208/3/4
f 208/3/4 207/3/4 209/3/4
f 208/1/4 209/1/4 210/1/4
f 210/1/4 209/1/4 211/1/4
f 210/3/4 211/3/4 212/3/4
f 212/3/4 211/3/4 213/3/4
f 212/1/4 213/1/4 214/1/4
f 214/1/4 213/1/4 215/1/4
f 214/3/4 215/3/4 216/3/4
f 216/3/4 215/3/4 217/3/4
f 216/1/4 217/1/4 218/1/4
f 218/1/4 217/1/4 219/1/4
f 218/3/4 219/3/4 220/3/4
f 220/3/4 219/3/4 221/3/4
f 220/1/4 221/1/4 222/1/4
f 222/1/4 221/1/4 223/1/4
f 222/3/4 223/3/4 224/3/4
f 224/3/4 223/3/4 225/3/4
f 224/1/4 225/1/4 226/1/4
f 226/1/4 225/1/4 227/1/4
f 226/3/4 227/3/4 228/3/4
f 228/3/4 227/3/4 229/3/4
f 228/1/4 229/1/4 230/1/4
f 230/1/4 229/1/4 231/1/4
f 230/4/4 231/4/4 232/4/4
f 232/4/4 231/4/4 233/4/4
f 232/1/4 233/1/4 234/1/4
f 234/1/4 233/1/4 235/1/4
f 234/5/4 235/5/4 236/5/4
f 236/5/4 235/5/4 237/5/4
f 236/4/4 237/4/4 238/4/4
f 238/4/4 237/4/4 239/4/4
f 238/1/4 239/1/4 240/1/4
f 240/1/4 239/1/4 241/1/4
f 240/5/4 241/5/4 242/5/4
f 242/5/4 241/5/4 243/5/4
f 242/4/4 243/4/4 244/4/4
f 244/4/4 243/4/4 245/4/4
f 244/5/4 245/5/4 247/5/4
f 247/5/4 245/5/4 248/5/4
f 246/2/4 247/2/4 250/2/4
f 250/2/4 247/2/4 251/2/4
f 250/4/4 251/4/4 252/4/4
f 252/4/4 251/4/4 253/4/4
f 248/5/4 249/5/4 254/5/4
f 254/5/4 249/5/4 255/5/4
f 252/5/4 253/5/4 257/5/4
f 257/5/4 253/5/4 258/5/4
f 254/4/4 255/4/4 259/4/4
f 259/4/4 255/4/4 260/4/4
f 257/4/4 258/4/4 262/4/4
f 256/4/4 257/4/4 262/4/4
f 262/4/4 258/4/4 263/4/4
f 259/4/4 260/4/4 264/4/4
f 260/2/4 261/2/4 264/2/4
f 264/2/4 261/2/4 265/2/4
f 262/5/4 263/5/4 266/5/4
f 266/5/4 263/5/4 267/5/4
f 267/5/4 263/5/4 268/5/4
f 259/4/4 264/4/4 269/4/4
f 264/4/4 265/4/4 269/4/4
f 269/4/4 265/4/4 270/4/4
f 270/4/4 265/4/4 271/4/4
f 267/5/4 268/5/4 272/5/4
f 269/4/4 270/4/4 273/4/4
f 273/4/4 270/4/4 274/4/4
f 267/5/4 272/5/4 275/5/4
f 275/5/4 272/5/4 276/5/4
f 275/4/4 276/4/4 277/4/4
f 277/4/4 276/4/4 278/4/4
f 277/5/4 278/5/4 279/5/4
f 273/5/4 274/5/4 280/5/4
f 277/5/4 279/5/4 281/5/4
f 279/4/4 280/4/4 282/4/4
f 281/5/4 279/5/4 282/5/4
f 280/5/4 274/5/4 283/5/4
f 282/4/4 280/4/4 283/4/4
f 283/5/4 274/5/4 284/5/4
f 282/5/4 283/5/4 285/5/4
f 285/5/4 283/5/4 286/5/4
f 287/5/4 288/5/4 289/5/4
f 289/5/4 288/5/4 290/5/4
f 291/5/4 292/5/4 293/5/4
f 293/5/4 292/5/4 294/5/4
f 293/4/4 294/4/4 295/4/4
f 295/4/4 294/4/4 296/4/4
f 297/4/4 298/4/4 299/4/4
f 299/4/4 298/4/4 300/4/4
f 299/2/4 300/2/4 301/2/4
f 301/2/4 300/2/4 302/2/4
f 306/4/5 304/4/5 303/4/5
f 307/5/5 305/5/5 304/5/5
f 307/4/5 304/4/5 306/4/5
f 308/5/5 305/5/5 307/5/5
f 317/2/5 310/2/5 309/2/5
f 318/4/5 311/4/5 310/4/5
f 318/2/5 310/2/5 317/2/5
f 319/5/5 312/5/5 311/5/5
f 319/4/5 311/4/5 318/4/5
f 320/5/5 312/5/5 319/5/5
f 321/5/5 314/5/5 313/5/5
f 322/4/5 315/4/5 314/4/5
f 322/5/5 314/5/5 321/5/5
f 323/5/5 316/5/5 315/5/5
f 323/4/5 315/4/5 322/4/5
f 324/5/5 316/5/5 323/5/5
f 331/5/5 326/5/5 325/5/5
f 332/2/5 327/2/5 326/2/5
f 332/5/5 326/5/5 331/5/5
f 333/2/5 327/2/5 332/2/5
f 365/5/5 329/5/5 328/5/5
f 366/4/5 330/4/5 329/4/5
f 366/5/5 329/5/5 365/5/5
f 367/5/5 331/5/5 330/5/5
f 367/4/5 330/4/5 366/4/5
f 368/2/5 332/2/5 331/2/5
f 368/5/5 331/5/5 367/5/5
f 368/2/5 333/2/5 332/2/5
f 369/2/5 333/2/5 368/2/5
f 370/4/5 334/4/5 333/4/5
f 370/2/5 333/2/5 369/2/5
f 371/2/5 335/2/5 334/2/5
f 371/4/5 334/4/5 370/4/5
f 372/4/5 336/4/5 335/4/5
f 372/2/5 335/2/5 371/2/5
f 373/5/5 337/5/5 336/5/5
f 373/4/5 336/4/5 372/4/5
f 374/5/5 337/5/5 373/5/5
f 377/1/5 339/1/5 338/1/5
f 378/3/5 340/3/5 339/3/5
f 378/1/5 339/1/5 377/1/5
f 379/1/5 341/1/5 340/1/5
f 379/3/5 340/3/5 378/3/5
f 380/3/5 342/3/5 341/3/5
f 380/1/5 341/1/5 379/1/5
f 381/1/5 343/1/5 342/1/5
f 381/3/5 342/3/5 380/3/5
f 382/3/5 344/3/5 343/3/5
f 382/1/5 343/1/5 381/1/5
f 383/1/5 345/1/5 344/1/5
f 383/3/5 344/3/5 382/3/5
f 384/3/5 346/3/5 345/3/5
f 384/1/5 345/1/5 383/1/5
f 385/1/5 347/1/5 346/1/5
f 385/3/5 346/3/5 384/3/5
f 386/3/5 348/3/5 347/3/5
f 386/1/5 347/1/5 385/1/5
f 387/1/5 349/1/5 348/1/5
f 387/3/5 348/3/5 386/3/5
f 388/3/5 350/3/5 349/3/5
f 388/1/5 349/1/5 387/1/5
f 389/1/5 351/1/5 350/1/5
f 389/3/5 350/3/5 388/3/5
f 390/3/5 352/3/5 351/3/5
f 390/1/5 351/1/5 389/1/5
f 391/1/5 353/1/5 352/1/5
f 391/3/5 352/3/5 390/3/5
f 392/3/5 354/3/5 353/3/5
f 392/1/5 353/1/5 391/1/5
f 393/1/5 355/1/5 354/1/5
f 393/3/5 354/3/5 392/3/5
f 394/3/5 356/3/5 355/3/5
f 394/1/5 355/1/5 393/1/5
f 395/1/5 357/1/5 356/1/5
f 395/3/5 356/3/5 394/3/5
f 396/4/5 358/4/5 357/4/5
f 396/1/5 357/1/5 395/1/5
f 397/1/5 359/1/5 358/1/5
f 397/4/5 358/4/5 396/4/5
f 398/5/5 360/5/5 359/5/5
f 398/1/5 359/1/5 397/1/5
f 399/4/5 361/4/5 360/4/5
f 399/5/5 360/5/5 398/5/5
f 400/1/5 362/1/5 361/1/5
f 400/4/5 361/4/5 399/4/5
f 401/5/5 363/5/5 362/5/5
f 401/1/5 362/1/5 400/1/5
f 402/4/5 364/4/5 363/4/5
f 402/5/5 363/5/5 401/5/5
f 403/5/5 365/5/5 364/5/5
f 403/4/5 364/4/5 402/4/5
f 404/5/5 365/5/5 403/5/5
f 414/5/5 376/5/5 375/5/5
f 415/5/5 376/5/5 414/5/5
f 416/5/5 407/5/5 406/5/5
f 416/5/5 406/5/5 405/5/5
f 416/5/5 405/5/5 404/5/5
f 417/4/5 409/4/5 408/4/5
f 417/5/5 407/5/5 416/5/5
f 417/4/5 408/4/5 407/4/5
f 418/4/5 409/4/5 417/4/5
f 419/5/5 410/5/5 409/5/5
f 419/4/5 409/4/5 418/4/5
f 420/4/5 413/4/5 412/4/5
f 420/5/5 410/5/5 419/5/5
f 420/4/5 412/4/5 411/4/5
f 420/4/5 411/4/5 410/4/5
f 421/4/5 413/4/5 420/4/5
f 422/4/5 418/4/5 417/4/5
f 423/2/5 419/2/5 418/2/5
f 423/4/5 418/4/5 422/4/5
f 424/2/5 419/2/5 423/2/5
f 425/5/6 426/5/6 431/5/6
f 426/2/6 427/2/6 432/2/6
f 431/5/6 426/5/6 432/5/6
f 432/2/6 427/2/6 433/2/6
f 428/5/6 429/5/6 465/5/6
f 429/4/6 430/4/6 466/4/6
f 465/5/6 429/5/6 466/5/6
f 430/5/6 431/5/6 467/5/6
f 466/4/6 430/4/6 467/4/6
f 467/5/6 431/5/6 468/5/6
f 431/2/6 432/2/6 469/2/6
f 468/5/6 431/5/6 469/5/6
f 432/2/6 433/2/6 469/2/6
f 433/4/6 434/4/6 470/4/6
f 469/2/6 433/2/6 470/2/6
f 434/2/6 435/2/6 471/2/6
f 470/4/6 434/4/6 471/4/6
f 435/4/6 436/4/6 472/4/6
f 471/2/6 435/2/6 472/2/6
f 436/5/6 437/5/6 473/5/6
f 472/4/6 436/4/6 473/4/6
f 473/5/6 437/5/6 474/5/6
f 438/1/6 439/1/6 477/1/6
f 439/3/6 440/3/6 478/3/6
f 477/1/6 439/1/6 478/1/6
f 440/1/6 441/1/6 479/1/6
f 478/3/6 440/3/6 479/3/6
f 441/3/6 442/3/6 480/3/6
f 479/1/6 441/1/6 480/1/6
f 442/1/6 443/1/6 481/1/6
f 480/3/6 442/3/6 481/3/6
f 443/3/6 444/3/6 482/3/6
f 481/1/6 443/1/6 482/1/6
f 444/1/6 445/1/6 483/1/6
f 482/3/6 444/3/6 483/3/6
f 445/3/6 446/3/6 484/3/6
f 483/1/6 445/1/6 484/1/6
f 446/1/6 447/1/6 485/1/6
f 484/3/6 446/3/6 485/3/6
f 447/3/6 448/3/6 486/3/6
f 485/1/6 447/1/6 486/1/6
f 448/1/6 449/1/6 487/1/6
f 486/3/6 448/3/6 487/3/6
f 449/3/6 450/3/6 488/3/6
f 487/1/6 449/1/6 488/1/6
f 450/1/6 451/1/6 489/1/6
f 488/3/6 450/3/6 489/3/6
f 451/3/6 452/3/6 490/3/6
f 489/1/6 451/1/6 490/1/6
f 452/1/6 453/1/6 491/1/6
f 490/3/6 452/3/6 491/3/6
f 453/3/6 454/3/6 492/3/6
f 491/1/6 453/1/6 492/1/6
f 454/1/6 455/1/6 493/1/6
f 492/3/6 454/3/6 493/3/6
f 455/3/6 456/3/6 494/3/6
f 493/1/6 455/1/6 494/1/6
f 456/1/6 457/1/6 495/1/6
f 494/3/6 456/3/6 495/3/6
f 457/4/6 458/4/6 496/4/6
f 495/1/6 457/1/6 496/1/6
f 458/1/6 459/1/6 497/1/6
f 496/4/6 458/4/6 497/4/6
f 459/5/6 460/5/6 498/5/6
f 497/1/6 459/1/6 498/1/6
f 460/4/6 461/4/6 499/4/6
f 498/5/6 460/5/6 499/5/6
f 461/1/6 462/1/6 500/1/6
f 499/4/6 461/4/6 500/4/6
f 462/5/6 463/5/6 501/5/6
f 500/1/6 462/1/6 501/1/6
f 463/4/6 464/4/6 502/4/6
f 501/5/6 463/5/6 502/5/6
f 464/5/6 465/5/6 503/5/6
f 502/4/6 464/4/6 503/4/6
f 503/5/6 465/5/6 504/5/6
f 475/5/6 476/5/6 510/5/6
f 510/5/6 476/5/6 511/5/6
f 505/5/6 506/5/6 512/5/6
f 504/5/6 505/5/6 512/5/6
f 506/4/6 507/4/6 513/4/6
f 512/5/6 506/5/6 513/5/6
f 513/4/6 507/4/6 514/4/6
f 507/5/6 508/5/6 515/5/6
f 514/4/6 507/4/6 515/4/6
f 508/4/6 509/4/6 516/4/6
f 515/5/6 508/5/6 516/5/6
f 516/4/6 509/4/6 517/4/6
f 513/4/6 514/4/6 518/4/6
f 514/2/6 515/2/6 519/2/6
f 518/4/6 514/4/6 519/4/6
f 519/2/6 515/2/6 520/2/6
f 521/5/6 522/5/6 527/5/6
f 522/4/6 523/4/6 528/4/6
f 527/5/6 522/5/6 528/5/6
f 528/4/6 523/4/6 529/4/6
f 524/4/6 525/4/6 530/4/6
f 525/5/6 526/5/6 531/5/6
f 530/4/6 525/4/6 531/4/6
f 531/5/6 526/5/6 532/5/6
f 533/2/6 534/2/6 536/2/6
f 534/4/6 535/4/6 537/4/6
f 536/2/6 534/2/6 537/2/6
f 537/4/6 535/4/6 538/4/6
