# MagicaVoxel @ Ephtracy

# group
g oh my desk-3

# material
mtllib oh my desk-3.mtl
usemtl palette

# normals
vn -1 0 0
vn 1 0 0
vn 0 0 1
vn 0 0 -1
vn 0 -1 0
vn 0 1 0

# texcoords
vt 0.939453 0.5
vt 0.943359 0.5
vt 0.951172 0.5
vt 0.970703 0.5
vt 0.974609 0.5
vt 0.990234 0.5

# verts
v -16 67 49
v -16 67 39
v -16 77 63
v -16 77 49
v -16 80 52
v -16 80 39
v -16 84 63
v -16 84 52
v -16 87 63
v -16 87 52
v -16 89 63
v -16 89 52
v -16 91 63
v -16 91 52
v -16 93 63
v -16 93 52
v -16 95 63
v -16 95 52
v -16 99 63
v -16 99 52
v -16 109 63
v -16 109 52
v -15 59 48
v -15 59 40
v -15 67 48
v -15 67 40
v -15 109 63
v -15 109 52
v -15 110 63
v -15 110 52
v -14 53 47
v -14 53 41
v -14 54 47
v -14 54 41
v -14 59 47
v -14 59 41
v -14 110 63
v -14 110 52
v -14 112 63
v -14 112 52
v -13 112 63
v -13 112 53
v -13 113 63
v -13 113 53
v -7 117 60
v -7 117 51
v -7 125 60
v -7 125 51
v -6 112 53
v -6 112 52
v -6 113 59
v -6 113 53
v -6 117 59
v -6 117 52
v 1 67 49
v 1 67 39
v 1 77 52
v 1 77 49
v 1 79 52
v 1 79 39
v 2 59 48
v 2 59 40
v 2 67 48
v 2 67 40
v 3 53 47
v 3 53 41
v 3 54 47
v 3 54 41
v 3 59 47
v 3 59 41
v 10 87 62
v 10 87 53
v 10 89 62
v 10 89 53
v 10 91 62
v 10 91 53
v 10 93 62
v 10 93 53
v 10 95 62
v 10 95 53
v 10 99 62
v 10 99 53
v -15 87 62
v -15 87 53
v -15 89 62
v -15 89 53
v -15 91 62
v -15 91 53
v -15 93 62
v -15 93 53
v -15 95 62
v -15 95 53
v -15 99 62
v -15 99 53
v -8 53 47
v -8 53 41
v -8 54 47
v -8 54 41
v -8 59 47
v -8 59 41
v -7 59 48
v -7 59 40
v -7 67 48
v -7 67 40
v -6 67 49
v -6 67 39
v -6 77 52
v -6 77 49
v -6 80 52
v -6 80 39
v 1 112 53
v 1 112 52
v 1 113 59
v 1 113 53
v 1 117 59
v 1 117 52
v 2 117 60
v 2 117 51
v 2 125 60
v 2 125 51
v 8 112 63
v 8 112 53
v 8 113 63
v 8 113 53
v 9 53 47
v 9 53 41
v 9 54 47
v 9 54 41
v 9 59 47
v 9 59 41
v 9 110 63
v 9 110 52
v 9 112 63
v 9 112 52
v 10 59 48
v 10 59 40
v 10 67 48
v 10 67 40
v 10 109 63
v 10 109 52
v 10 110 63
v 10 110 52
v 11 67 49
v 11 67 39
v 11 77 63
v 11 77 49
v 11 79 52
v 11 79 39
v 11 84 63
v 11 84 52
v 11 87 63
v 11 87 52
v 11 89 63
v 11 89 52
v 11 91 63
v 11 91 52
v 11 93 63
v 11 93 52
v 11 95 63
v 11 95 52
v 11 99 63
v 11 99 52
v 11 109 63
v 11 109 52
v -16 77 63
v -16 84 63
v -16 87 63
v -16 89 63
v -16 91 63
v -16 93 63
v -16 95 63
v -16 99 63
v -16 109 63
v -15 109 63
v -15 110 63
v -14 110 63
v -14 112 63
v -13 112 63
v -13 113 63
v 8 112 63
v 8 113 63
v 9 110 63
v 9 112 63
v 10 109 63
v 10 110 63
v 11 77 63
v 11 84 63
v 11 87 63
v 11 89 63
v 11 91 63
v 11 93 63
v 11 95 63
v 11 99 63
v 11 109 63
v -7 117 60
v -7 125 60
v 2 117 60
v 2 125 60
v -6 113 59
v -6 117 59
v 1 113 59
v 1 117 59
v -15 87 53
v -15 89 53
v -15 91 53
v -15 93 53
v -15 95 53
v -15 99 53
v 10 87 53
v 10 89 53
v 10 91 53
v 10 93 53
v 10 95 53
v 10 99 53
v -16 67 49
v -16 77 49
v -6 67 49
v -6 77 49
v 1 67 49
v 1 77 49
v 11 67 49
v 11 77 49
v -15 59 48
v -15 67 48
v -7 59 48
v -7 67 48
v 2 59 48
v 2 67 48
v 10 59 48
v 10 67 48
v -14 53 47
v -14 54 47
v -14 59 47
v -8 53 47
v -8 54 47
v -8 59 47
v 3 53 47
v 3 54 47
v 3 59 47
v 9 53 47
v 9 54 47
v 9 59 47
v -15 87 62
v -15 89 62
v -15 91 62
v -15 93 62
v -15 95 62
v -15 99 62
v 10 87 62
v 10 89 62
v 10 91 62
v 10 93 62
v 10 95 62
v 10 99 62
v -13 112 53
v -13 113 53
v -6 112 53
v -6 113 53
v 1 112 53
v 1 113 53
v 8 112 53
v 8 113 53
v -16 80 52
v -16 84 52
v -16 87 52
v -16 89 52
v -16 91 52
v -16 93 52
v -16 95 52
v -16 99 52
v -16 109 52
v -15 109 52
v -15 110 52
v -14 110 52
v -14 112 52
v -6 77 52
v -6 80 52
v -6 111 52
v -6 112 52
v -6 117 52
v -5 110 52
v -5 111 52
v 0 110 52
v 0 111 52
v 1 77 52
v 1 79 52
v 1 111 52
v 1 112 52
v 1 117 52
v 9 110 52
v 9 112 52
v 10 109 52
v 10 110 52
v 11 79 52
v 11 84 52
v 11 87 52
v 11 89 52
v 11 91 52
v 11 93 52
v 11 95 52
v 11 99 52
v 11 109 52
v -7 117 51
v -7 125 51
v 2 117 51
v 2 125 51
v -14 53 41
v -14 54 41
v -14 59 41
v -8 53 41
v -8 54 41
v -8 59 41
v 3 53 41
v 3 54 41
v 3 59 41
v 9 53 41
v 9 54 41
v 9 59 41
v -15 59 40
v -15 67 40
v -7 59 40
v -7 67 40
v 2 59 40
v 2 67 40
v 10 59 40
v 10 67 40
v -16 67 39
v -16 80 39
v -6 67 39
v -6 80 39
v 1 67 39
v 1 79 39
v 11 67 39
v 11 79 39
v -14 53 47
v -8 53 47
v 3 53 47
v 9 53 47
v -14 53 41
v -8 53 41
v 3 53 41
v 9 53 41
v -15 59 48
v -7 59 48
v 2 59 48
v 10 59 48
v -14 59 47
v -8 59 47
v 3 59 47
v 9 59 47
v -14 59 41
v -8 59 41
v 3 59 41
v 9 59 41
v -15 59 40
v -7 59 40
v 2 59 40
v 10 59 40
v -16 67 49
v -6 67 49
v 1 67 49
v 11 67 49
v -15 67 48
v -7 67 48
v 2 67 48
v 10 67 48
v -15 67 40
v -7 67 40
v 2 67 40
v 10 67 40
v -16 67 39
v -6 67 39
v 1 67 39
v 11 67 39
v -16 77 63
v 11 77 63
v -6 77 52
v 1 77 52
v -16 77 49
v -6 77 49
v 1 77 49
v 11 77 49
v -15 89 62
v 10 89 62
v -15 89 53
v 10 89 53
v -15 93 62
v 10 93 62
v -15 93 53
v 10 93 53
v -15 99 62
v 10 99 62
v -15 99 53
v 10 99 53
v -7 117 60
v 2 117 60
v -6 117 59
v 1 117 59
v -6 117 52
v 1 117 52
v -7 117 51
v 2 117 51
v 1 79 52
v 11 79 52
v 1 79 39
v 11 79 39
v -16 80 52
v -6 80 52
v -16 80 39
v -6 80 39
v -15 87 62
v 10 87 62
v -15 87 53
v 10 87 53
v -15 91 62
v 10 91 62
v -15 91 53
v 10 91 53
v -15 95 62
v 10 95 62
v -15 95 53
v 10 95 53
v -16 109 63
v -15 109 63
v 10 109 63
v 11 109 63
v -16 109 52
v -15 109 52
v 10 109 52
v 11 109 52
v -15 110 63
v -14 110 63
v 9 110 63
v 10 110 63
v -15 110 52
v -14 110 52
v 9 110 52
v 10 110 52
v -14 112 63
v -13 112 63
v 8 112 63
v 9 112 63
v -13 112 53
v -6 112 53
v 1 112 53
v 8 112 53
v -14 112 52
v -6 112 52
v 1 112 52
v 9 112 52
v -13 113 63
v 8 113 63
v -6 113 59
v 1 113 59
v -13 113 53
v -6 113 53
v 1 113 53
v 8 113 53
v -7 125 60
v 2 125 60
v -7 125 51
v 2 125 51

# faces
f 4/1/1 2/1/1 1/1/1
f 5/1/1 4/1/1 3/1/1
f 6/1/1 2/1/1 4/1/1
f 6/1/1 4/1/1 5/1/1
f 7/1/1 5/1/1 3/1/1
f 8/1/1 5/1/1 7/1/1
f 9/2/1 8/2/1 7/2/1
f 10/2/1 8/2/1 9/2/1
f 11/3/1 10/3/1 9/3/1
f 12/3/1 10/3/1 11/3/1
f 13/5/1 12/5/1 11/5/1
f 14/5/1 12/5/1 13/5/1
f 15/3/1 14/3/1 13/3/1
f 16/3/1 14/3/1 15/3/1
f 17/5/1 16/5/1 15/5/1
f 18/5/1 16/5/1 17/5/1
f 19/3/1 18/3/1 17/3/1
f 20/3/1 18/3/1 19/3/1
f 21/5/1 20/5/1 19/5/1
f 22/5/1 20/5/1 21/5/1
f 25/4/1 24/4/1 23/4/1
f 26/4/1 24/4/1 25/4/1
f 29/5/1 28/5/1 27/5/1
f 30/5/1 28/5/1 29/5/1
f 33/6/1 32/6/1 31/6/1
f 34/6/1 32/6/1 33/6/1
f 35/4/1 34/4/1 33/4/1
f 36/4/1 34/4/1 35/4/1
f 39/5/1 38/5/1 37/5/1
f 40/5/1 38/5/1 39/5/1
f 43/5/1 42/5/1 41/5/1
f 44/5/1 42/5/1 43/5/1
f 47/4/1 46/4/1 45/4/1
f 48/4/1 46/4/1 47/4/1
f 52/4/1 50/4/1 49/4/1
f 53/4/1 52/4/1 51/4/1
f 54/4/1 50/4/1 52/4/1
f 54/4/1 52/4/1 53/4/1
f 58/1/1 56/1/1 55/1/1
f 59/1/1 58/1/1 57/1/1
f 60/1/1 56/1/1 58/1/1
f 60/1/1 58/1/1 59/1/1
f 63/4/1 62/4/1 61/4/1
f 64/4/1 62/4/1 63/4/1
f 67/6/1 66/6/1 65/6/1
f 68/6/1 66/6/1 67/6/1
f 69/4/1 68/4/1 67/4/1
f 70/4/1 68/4/1 69/4/1
f 73/3/1 72/3/1 71/3/1
f 74/3/1 72/3/1 73/3/1
f 77/3/1 76/3/1 75/3/1
f 78/3/1 76/3/1 77/3/1
f 81/3/1 80/3/1 79/3/1
f 82/3/1 80/3/1 81/3/1
f 83/3/2 84/3/2 85/3/2
f 85/3/2 84/3/2 86/3/2
f 87/3/2 88/3/2 89/3/2
f 89/3/2 88/3/2 90/3/2
f 91/3/2 92/3/2 93/3/2
f 93/3/2 92/3/2 94/3/2
f 95/6/2 96/6/2 97/6/2
f 97/6/2 96/6/2 98/6/2
f 97/4/2 98/4/2 99/4/2
f 99/4/2 98/4/2 100/4/2
f 101/4/2 102/4/2 103/4/2
f 103/4/2 102/4/2 104/4/2
f 105/1/2 106/1/2 108/1/2
f 107/1/2 108/1/2 109/1/2
f 108/1/2 106/1/2 110/1/2
f 109/1/2 108/1/2 110/1/2
f 111/4/2 112/4/2 114/4/2
f 113/4/2 114/4/2 115/4/2
f 114/4/2 112/4/2 116/4/2
f 115/4/2 114/4/2 116/4/2
f 117/4/2 118/4/2 119/4/2
f 119/4/2 118/4/2 120/4/2
f 121/5/2 122/5/2 123/5/2
f 123/5/2 122/5/2 124/5/2
f 125/6/2 126/6/2 127/6/2
f 127/6/2 126/6/2 128/6/2
f 127/4/2 128/4/2 129/4/2
f 129/4/2 128/4/2 130/4/2
f 131/5/2 132/5/2 133/5/2
f 133/5/2 132/5/2 134/5/2
f 135/4/2 136/4/2 137/4/2
f 137/4/2 136/4/2 138/4/2
f 139/5/2 140/5/2 141/5/2
f 141/5/2 140/5/2 142/5/2
f 143/1/2 144/1/2 146/1/2
f 145/1/2 146/1/2 147/1/2
f 146/1/2 144/1/2 148/1/2
f 147/1/2 146/1/2 148/1/2
f 145/1/2 147/1/2 149/1/2
f 149/1/2 147/1/2 150/1/2
f 149/2/2 150/2/2 151/2/2
f 151/2/2 150/2/2 152/2/2
f 151/3/2 152/3/2 153/3/2
f 153/3/2 152/3/2 154/3/2
f 153/5/2 154/5/2 155/5/2
f 155/5/2 154/5/2 156/5/2
f 155/3/2 156/3/2 157/3/2
f 157/3/2 156/3/2 158/3/2
f 157/5/2 158/5/2 159/5/2
f 159/5/2 158/5/2 160/5/2
f 159/3/2 160/3/2 161/3/2
f 161/3/2 160/3/2 162/3/2
f 161/5/2 162/5/2 163/5/2
f 163/5/2 162/5/2 164/5/2
f 174/5/3 173/5/3 172/5/3
f 176/5/3 175/5/3 174/5/3
f 178/5/3 177/5/3 176/5/3
f 180/5/3 178/5/3 176/5/3
f 180/5/3 179/5/3 178/5/3
f 181/5/3 179/5/3 180/5/3
f 182/5/3 176/5/3 174/5/3
f 182/5/3 180/5/3 176/5/3
f 183/5/3 180/5/3 182/5/3
f 184/5/3 174/5/3 172/5/3
f 184/5/3 182/5/3 174/5/3
f 185/5/3 182/5/3 184/5/3
f 186/1/3 166/1/3 165/1/3
f 187/2/3 167/2/3 166/2/3
f 187/1/3 166/1/3 186/1/3
f 188/3/3 168/3/3 167/3/3
f 188/2/3 167/2/3 187/2/3
f 189/5/3 169/5/3 168/5/3
f 189/3/3 168/3/3 188/3/3
f 190/3/3 170/3/3 169/3/3
f 190/5/3 169/5/3 189/5/3
f 191/5/3 171/5/3 170/5/3
f 191/3/3 170/3/3 190/3/3
f 192/3/3 172/3/3 171/3/3
f 192/5/3 171/5/3 191/5/3
f 193/5/3 184/5/3 172/5/3
f 193/3/3 172/3/3 192/3/3
f 194/5/3 184/5/3 193/5/3
f 197/4/3 196/4/3 195/4/3
f 198/4/3 196/4/3 197/4/3
f 201/4/3 200/4/3 199/4/3
f 202/4/3 200/4/3 201/4/3
f 209/3/3 204/3/3 203/3/3
f 210/3/3 204/3/3 209/3/3
f 211/3/3 206/3/3 205/3/3
f 212/3/3 206/3/3 211/3/3
f 213/3/3 208/3/3 207/3/3
f 214/3/3 208/3/3 213/3/3
f 217/1/3 216/1/3 215/1/3
f 218/1/3 216/1/3 217/1/3
f 221/1/3 220/1/3 219/1/3
f 222/1/3 220/1/3 221/1/3
f 225/4/3 224/4/3 223/4/3
f 226/4/3 224/4/3 225/4/3
f 229/4/3 228/4/3 227/4/3
f 230/4/3 228/4/3 229/4/3
f 234/6/3 232/6/3 231/6/3
f 235/4/3 233/4/3 232/4/3
f 235/6/3 232/6/3 234/6/3
f 236/4/3 233/4/3 235/4/3
f 240/6/3 238/6/3 237/6/3
f 241/4/3 239/4/3 238/4/3
f 241/6/3 238/6/3 240/6/3
f 242/4/3 239/4/3 241/4/3
f 243/3/4 244/3/4 249/3/4
f 249/3/4 244/3/4 250/3/4
f 245/3/4 246/3/4 251/3/4
f 251/3/4 246/3/4 252/3/4
f 247/3/4 248/3/4 253/3/4
f 253/3/4 248/3/4 254/3/4
f 255/5/4 256/5/4 257/5/4
f 257/5/4 256/5/4 258/5/4
f 259/5/4 260/5/4 261/5/4
f 261/5/4 260/5/4 262/5/4
f 270/5/4 271/5/4 272/5/4
f 272/5/4 273/5/4 274/5/4
f 263/1/4 264/1/4 277/1/4
f 274/5/4 275/5/4 278/5/4
f 278/5/4 275/5/4 279/5/4
f 272/5/4 274/5/4 281/5/4
f 274/5/4 278/5/4 281/5/4
f 279/4/4 280/4/4 282/4/4
f 281/5/4 278/5/4 282/5/4
f 278/4/4 279/4/4 282/4/4
f 272/5/4 281/5/4 283/5/4
f 281/4/4 282/4/4 283/4/4
f 282/4/4 280/4/4 284/4/4
f 283/4/4 282/4/4 284/4/4
f 276/1/4 277/1/4 285/1/4
f 285/1/4 277/1/4 286/1/4
f 284/4/4 280/4/4 287/4/4
f 283/5/4 284/5/4 287/5/4
f 287/4/4 280/4/4 288/4/4
f 288/4/4 280/4/4 289/4/4
f 272/5/4 283/5/4 290/5/4
f 287/5/4 288/5/4 290/5/4
f 283/5/4 287/5/4 290/5/4
f 290/5/4 288/5/4 291/5/4
f 270/5/4 272/5/4 292/5/4
f 272/5/4 290/5/4 292/5/4
f 292/5/4 290/5/4 293/5/4
f 286/1/4 277/1/4 294/1/4
f 264/2/4 265/2/4 295/2/4
f 294/1/4 277/1/4 295/1/4
f 277/1/4 264/1/4 295/1/4
f 265/3/4 266/3/4 296/3/4
f 295/2/4 265/2/4 296/2/4
f 266/5/4 267/5/4 297/5/4
f 296/3/4 266/3/4 297/3/4
f 267/3/4 268/3/4 298/3/4
f 297/5/4 267/5/4 298/5/4
f 268/5/4 269/5/4 299/5/4
f 298/3/4 268/3/4 299/3/4
f 269/3/4 270/3/4 300/3/4
f 299/5/4 269/5/4 300/5/4
f 270/5/4 292/5/4 301/5/4
f 300/3/4 270/3/4 301/3/4
f 301/5/4 292/5/4 302/5/4
f 303/4/4 304/4/4 305/4/4
f 305/4/4 304/4/4 306/4/4
f 307/6/4 308/6/4 310/6/4
f 308/4/4 309/4/4 311/4/4
f 310/6/4 308/6/4 311/6/4
f 311/4/4 309/4/4 312/4/4
f 313/6/4 314/6/4 316/6/4
f 314/4/4 315/4/4 317/4/4
f 316/6/4 314/6/4 317/6/4
f 317/4/4 315/4/4 318/4/4
f 319/4/4 320/4/4 321/4/4
f 321/4/4 320/4/4 322/4/4
f 323/4/4 324/4/4 325/4/4
f 325/4/4 324/4/4 326/4/4
f 327/1/4 328/1/4 329/1/4
f 329/1/4 328/1/4 330/1/4
f 331/1/4 332/1/4 333/1/4
f 333/1/4 332/1/4 334/1/4
f 339/6/5 336/6/5 335/6/5
f 340/6/5 336/6/5 339/6/5
f 341/6/5 338/6/5 337/6/5
f 342/6/5 338/6/5 341/6/5
f 347/4/5 344/4/5 343/4/5
f 348/4/5 344/4/5 347/4/5
f 349/4/5 346/4/5 345/4/5
f 350/4/5 346/4/5 349/4/5
f 351/4/5 347/4/5 343/4/5
f 352/4/5 344/4/5 348/4/5
f 353/4/5 349/4/5 345/4/5
f 354/4/5 346/4/5 350/4/5
f 355/4/5 351/4/5 343/4/5
f 355/4/5 352/4/5 351/4/5
f 356/4/5 344/4/5 352/4/5
f 356/4/5 352/4/5 355/4/5
f 357/4/5 354/4/5 353/4/5
f 357/4/5 353/4/5 345/4/5
f 358/4/5 346/4/5 354/4/5
f 358/4/5 354/4/5 357/4/5
f 363/1/5 360/1/5 359/1/5
f 364/1/5 360/1/5 363/1/5
f 365/1/5 362/1/5 361/1/5
f 366/1/5 362/1/5 365/1/5
f 367/1/5 363/1/5 359/1/5
f 368/1/5 360/1/5 364/1/5
f 369/1/5 365/1/5 361/1/5
f 370/1/5 362/1/5 366/1/5
f 371/1/5 367/1/5 359/1/5
f 371/1/5 368/1/5 367/1/5
f 372/1/5 360/1/5 368/1/5
f 372/1/5 368/1/5 371/1/5
f 373/1/5 370/1/5 369/1/5
f 373/1/5 369/1/5 361/1/5
f 374/1/5 362/1/5 370/1/5
f 374/1/5 370/1/5 373/1/5
f 377/1/5 376/1/5 375/1/5
f 378/1/5 376/1/5 377/1/5
f 379/1/5 377/1/5 375/1/5
f 380/1/5 377/1/5 379/1/5
f 381/1/5 376/1/5 378/1/5
f 382/1/5 376/1/5 381/1/5
f 385/5/5 384/5/5 383/5/5
f 386/5/5 384/5/5 385/5/5
f 389/5/5 388/5/5 387/5/5
f 390/5/5 388/5/5 389/5/5
f 393/5/5 392/5/5 391/5/5
f 394/5/5 392/5/5 393/5/5
f 397/4/5 396/4/5 395/4/5
f 398/4/5 396/4/5 397/4/5
f 399/4/5 397/4/5 395/4/5
f 400/4/5 396/4/5 398/4/5
f 401/4/5 399/4/5 395/4/5
f 401/4/5 400/4/5 399/4/5
f 402/4/5 396/4/5 400/4/5
f 402/4/5 400/4/5 401/4/5
f 403/1/6 404/1/6 405/1/6
f 405/1/6 404/1/6 406/1/6
f 407/1/6 408/1/6 409/1/6
f 409/1/6 408/1/6 410/1/6
f 411/2/6 412/2/6 413/2/6
f 413/2/6 412/2/6 414/2/6
f 415/5/6 416/5/6 417/5/6
f 417/5/6 416/5/6 418/5/6
f 419/5/6 420/5/6 421/5/6
f 421/5/6 420/5/6 422/5/6
f 423/5/6 424/5/6 427/5/6
f 427/5/6 424/5/6 428/5/6
f 425/5/6 426/5/6 429/5/6
f 429/5/6 426/5/6 430/5/6
f 431/5/6 432/5/6 435/5/6
f 435/5/6 432/5/6 436/5/6
f 433/5/6 434/5/6 437/5/6
f 437/5/6 434/5/6 438/5/6
f 439/5/6 440/5/6 443/5/6
f 441/5/6 442/5/6 446/5/6
f 443/5/6 444/5/6 447/5/6
f 439/5/6 443/5/6 447/5/6
f 447/5/6 444/5/6 448/5/6
f 445/5/6 446/5/6 449/5/6
f 446/5/6 442/5/6 450/5/6
f 449/5/6 446/5/6 450/5/6
f 451/5/6 452/5/6 453/5/6
f 453/5/6 452/5/6 454/5/6
f 451/5/6 453/5/6 455/5/6
f 455/5/6 453/5/6 456/5/6
f 454/5/6 452/5/6 457/5/6
f 457/5/6 452/5/6 458/5/6
f 459/4/6 460/4/6 461/4/6
f 461/4/6 460/4/6 462/4/6
